solid OpenSCAD_Model
  facet normal -0 0 -1
    outer loop
      vertex -3.05 0 -45.75
      vertex -2.4675 1.79274 -45.75
      vertex -2.4675 -1.79274 -45.75
    endloop
  endfacet
  facet normal 0 -0 -1
    outer loop
      vertex -2.4675 -1.79274 -45.75
      vertex -2.4675 1.79274 -45.75
      vertex -0.942502 2.90072 -45.75
    endloop
  endfacet
  facet normal 0 0 -1
    outer loop
      vertex -2.4675 -1.79274 -45.75
      vertex -0.942502 2.90072 -45.75
      vertex 0.942502 2.90072 -45.75
    endloop
  endfacet
  facet normal 0 0 -1
    outer loop
      vertex -2.4675 -1.79274 -45.75
      vertex 0.942502 2.90072 -45.75
      vertex 2.4675 1.79274 -45.75
    endloop
  endfacet
  facet normal 0 0 -1
    outer loop
      vertex -2.4675 -1.79274 -45.75
      vertex 2.4675 1.79274 -45.75
      vertex 3.05 0 -45.75
    endloop
  endfacet
  facet normal -0 0 -1
    outer loop
      vertex -2.4675 -1.79274 -45.75
      vertex 3.05 0 -45.75
      vertex 2.4675 -1.79274 -45.75
    endloop
  endfacet
  facet normal 0 0 -1
    outer loop
      vertex -2.4675 -1.79274 -45.75
      vertex 2.4675 -1.79274 -45.75
      vertex 0.942502 -2.90072 -45.75
    endloop
  endfacet
  facet normal 0 0 -1
    outer loop
      vertex -2.4675 -1.79274 -45.75
      vertex 0.942502 -2.90072 -45.75
      vertex -0.942502 -2.90072 -45.75
    endloop
  endfacet
  facet normal -0.951057 0.309017 0
    outer loop
      vertex -2.4675 1.79274 31.2586
      vertex -2.4675 1.79274 -45.75
      vertex -3.05 3.47624e-15 41.4257
    endloop
  endfacet
  facet normal -0.951057 0.309017 0
    outer loop
      vertex -2.4675 1.79274 44.2747
      vertex -3.05 0 45.75
      vertex -2.4675 1.79274 45.75
    endloop
  endfacet
  facet normal -8.98279e-18 4.85343e-18 0
    outer loop
      vertex -3.05 0 -45.75
      vertex -3.05 0 45.75
      vertex -3.05 8.21925e-16 45.3098
    endloop
  endfacet
  facet normal -2.95342e-17 9.96182e-18 5.41176e-35
    outer loop
      vertex -3.05 0 -45.75
      vertex -3.05 8.21925e-16 45.3098
      vertex -3.05 3.47624e-15 41.4257
    endloop
  endfacet
  facet normal -0.951057 0.309017 2.21213e-18
    outer loop
      vertex -3.05 0 -45.75
      vertex -3.05 3.47624e-15 41.4257
      vertex -2.4675 1.79274 -45.75
    endloop
  endfacet
  facet normal -0.951057 0.309017 -3.82448e-16
    outer loop
      vertex -3.05 8.21925e-16 45.3098
      vertex -3.05 0 45.75
      vertex -2.4675 1.79274 44.2747
    endloop
  endfacet
  facet normal -0.951057 -0.309017 0
    outer loop
      vertex -2.80225 -0.7625 45.75
      vertex -2.4675 -1.79274 -45.75
      vertex -2.4675 -1.79274 45.75
    endloop
  endfacet
  facet normal -0.951057 -0.309017 2.21213e-18
    outer loop
      vertex -3.05 0 -45.75
      vertex -2.4675 -1.79274 -45.75
      vertex -3.05 -3.47624e-15 41.4257
    endloop
  endfacet
  facet normal -3.79917e-17 -1.45603e-17 -0
    outer loop
      vertex -3.05 0 -45.75
      vertex -3.05 -3.47624e-15 41.4257
      vertex -3.05 0 45.75
    endloop
  endfacet
  facet normal -1.08233e-16 -7.13315e-17 2.3997e-32
    outer loop
      vertex -3.05 -3.47624e-15 41.4257
      vertex -3.05 -8.21925e-16 45.3098
      vertex -3.05 0 45.75
    endloop
  endfacet
  facet normal -3.96343e-15 -1.2878e-15 -2.22045e-16
    outer loop
      vertex -3.05 0 45.75
      vertex -2.80225 -0.7625 45.75
      vertex -2.4675 -1.79274 45.75
    endloop
  endfacet
  facet normal -0.951057 -0.309017 4.61894e-18
    outer loop
      vertex -3.05 -3.47624e-15 41.4257
      vertex -2.4675 -1.79274 -45.75
      vertex -2.80225 -0.7625 45.75
    endloop
  endfacet
  facet normal -0.951057 -0.309017 -4.57211e-16
    outer loop
      vertex -2.80225 -0.7625 45.75
      vertex -3.05 0 45.75
      vertex -3.05 -8.21925e-16 45.3098
    endloop
  endfacet
  facet normal -0.587785 -0.809017 0
    outer loop
      vertex -2.4675 -1.79274 45.75
      vertex -2.4675 -1.79274 -45.75
      vertex -0.942502 -2.90072 -45.75
    endloop
  endfacet
  facet normal -0.587785 -0.809017 0
    outer loop
      vertex -0.942502 -2.90072 45.75
      vertex -2.4675 -1.79274 45.75
      vertex -0.942502 -2.90072 -45.75
    endloop
  endfacet
  facet normal 0 -1 0
    outer loop
      vertex -0.942502 -2.90072 45.75
      vertex -0.942502 -2.90072 -45.75
      vertex 0.942502 -2.90072 -45.75
    endloop
  endfacet
  facet normal 0 -1 0
    outer loop
      vertex 0.942502 -2.90072 45.75
      vertex -0.942502 -2.90072 45.75
      vertex 0.942502 -2.90072 -45.75
    endloop
  endfacet
  facet normal 0.587785 -0.809017 0
    outer loop
      vertex 0.942502 -2.90072 45.75
      vertex 0.942502 -2.90072 -45.75
      vertex 2.4675 -1.79274 -45.75
    endloop
  endfacet
  facet normal 0.587785 -0.809017 0
    outer loop
      vertex 2.4675 -1.79274 45.75
      vertex 0.942502 -2.90072 45.75
      vertex 2.4675 -1.79274 -45.75
    endloop
  endfacet
  facet normal 0.951057 -0.309017 0
    outer loop
      vertex 2.4675 -1.79274 45.75
      vertex 2.4675 -1.79274 -45.75
      vertex 3.05 0 -45.75
    endloop
  endfacet
  facet normal 0.951057 -0.309017 1.73122e-16
    outer loop
      vertex 2.80225 -0.7625 45.75
      vertex 2.4675 -1.79274 45.75
      vertex 3.05 0 41.4257
    endloop
  endfacet
  facet normal 0.951057 -0.309017 0
    outer loop
      vertex 3.05 0 41.4257
      vertex 2.4675 -1.79274 45.75
      vertex 3.05 0 -45.75
    endloop
  endfacet
  facet normal 0.951057 0.309017 0
    outer loop
      vertex 3.05 0 -45.75
      vertex 2.4675 1.79274 -45.75
      vertex 2.4675 1.79274 31.2586
    endloop
  endfacet
  facet normal 0.951057 0.309017 -0
    outer loop
      vertex 3.05 0 41.4257
      vertex 3.05 0 -45.75
      vertex 2.4675 1.79274 31.2586
    endloop
  endfacet
  facet normal 0.587785 0.809017 0
    outer loop
      vertex 0.942502 2.90072 -45.75
      vertex 0.942502 2.90072 24.975
      vertex 2.4675 1.79274 -45.75
    endloop
  endfacet
  facet normal 0.587785 0.809017 0
    outer loop
      vertex 2.4675 1.79274 -45.75
      vertex 0.942502 2.90072 24.975
      vertex 2.4675 1.79274 31.2586
    endloop
  endfacet
  facet normal 0 1 0
    outer loop
      vertex -0.942502 2.90072 -45.75
      vertex -0.942502 2.90072 24.975
      vertex 0.942502 2.90072 -45.75
    endloop
  endfacet
  facet normal 0 1 0
    outer loop
      vertex 0.942502 2.90072 -45.75
      vertex -0.942502 2.90072 24.975
      vertex 0.942502 2.90072 24.975
    endloop
  endfacet
  facet normal -0.587785 0.809017 0
    outer loop
      vertex -2.4675 1.79274 -45.75
      vertex -2.4675 1.79274 31.2586
      vertex -0.942502 2.90072 -45.75
    endloop
  endfacet
  facet normal -0.587785 0.809017 0
    outer loop
      vertex -0.942502 2.90072 -45.75
      vertex -2.4675 1.79274 31.2586
      vertex -0.942502 2.90072 24.975
    endloop
  endfacet
  facet normal -2.50691e-17 0.984807 0.17365
    outer loop
      vertex -2.80225 -0.7625 45.75
      vertex 2.80225 -0.7625 45.75
      vertex 3.05 0 41.4257
    endloop
  endfacet
  facet normal 9.25541e-17 0.984807 0.17365
    outer loop
      vertex -2.80225 -0.7625 45.75
      vertex 3.05 0 41.4257
      vertex 2.4675 1.79274 31.2586
    endloop
  endfacet
  facet normal 0 0.984807 0.17365
    outer loop
      vertex -2.80225 -0.7625 45.75
      vertex 2.4675 1.79274 31.2586
      vertex 0.942502 2.90072 24.975
    endloop
  endfacet
  facet normal 3.01252e-16 0.984807 0.17365
    outer loop
      vertex -2.80225 -0.7625 45.75
      vertex 0.942502 2.90072 24.975
      vertex -0.942502 2.90072 24.975
    endloop
  endfacet
  facet normal 2.94992e-16 0.984807 0.17365
    outer loop
      vertex -2.80225 -0.7625 45.75
      vertex -0.942502 2.90072 24.975
      vertex -2.4675 1.79274 31.2586
    endloop
  endfacet
  facet normal 5.69704e-16 0.984807 0.17365
    outer loop
      vertex -2.80225 -0.7625 45.75
      vertex -2.4675 1.79274 31.2586
      vertex -3.05 3.47624e-15 41.4257
    endloop
  endfacet
  facet normal 1.38778e-16 5.68989e-16 9.19403e-17
    outer loop
      vertex -2.80225 -0.7625 45.75
      vertex -3.05 3.47624e-15 41.4257
      vertex -3.05 -3.47624e-15 41.4257
    endloop
  endfacet
  facet normal 1.78999e-15 2.50995e-30 4.0932e-31
    outer loop
      vertex -3.05 -3.47624e-15 41.4257
      vertex -3.05 3.47624e-15 41.4257
      vertex -3.05 8.21925e-16 45.3098
    endloop
  endfacet
  facet normal 4.23228e-16 0 9.678e-32
    outer loop
      vertex -3.05 -8.21925e-16 45.3098
      vertex -3.05 -3.47624e-15 41.4257
      vertex -3.05 8.21925e-16 45.3098
    endloop
  endfacet
  facet normal 1.24469e-15 0 -7.00484e-16
    outer loop
      vertex -3.05 -8.21925e-16 45.3098
      vertex -3.05 8.21925e-16 45.3098
      vertex -2.80225 -0.7625 45.75
    endloop
  endfacet
  facet normal -1.76678e-16 -0.5 -0.866025
    outer loop
      vertex -2.80225 -0.7625 45.75
      vertex -3.05 8.21925e-16 45.3098
      vertex -2.4675 1.79274 44.2747
    endloop
  endfacet
  facet normal -7.31868e-16 -0.5 -0.866025
    outer loop
      vertex -2.80225 -0.7625 45.75
      vertex -2.4675 1.79274 44.2747
      vertex -0.942502 2.90072 43.635
    endloop
  endfacet
  facet normal 0 -0.5 -0.866025
    outer loop
      vertex -2.80225 -0.7625 45.75
      vertex -0.942502 2.90072 43.635
      vertex 0.942502 2.90072 43.635
    endloop
  endfacet
  facet normal 2.7426e-16 -0.5 -0.866025
    outer loop
      vertex -2.80225 -0.7625 45.75
      vertex 0.942502 2.90072 43.635
      vertex 2.4675 1.79274 44.2747
    endloop
  endfacet
  facet normal -7.52797e-17 -0.5 -0.866025
    outer loop
      vertex -2.80225 -0.7625 45.75
      vertex 2.4675 1.79274 44.2747
      vertex 3.05 0 45.3098
    endloop
  endfacet
  facet normal 1.08805e-15 -0.5 -0.866025
    outer loop
      vertex -2.80225 -0.7625 45.75
      vertex 3.05 0 45.3098
      vertex 2.80225 -0.7625 45.75
    endloop
  endfacet
  facet normal -0.587785 0.809017 0
    outer loop
      vertex -2.4675 1.79274 44.2747
      vertex -2.4675 1.79274 45.75
      vertex -0.942502 2.90072 43.635
    endloop
  endfacet
  facet normal -0.587785 0.809017 0
    outer loop
      vertex -0.942502 2.90072 43.635
      vertex -2.4675 1.79274 45.75
      vertex -0.942502 2.90072 45.75
    endloop
  endfacet
  facet normal -0.939904 0.305393 0.152697
    outer loop
      vertex -2.4675 1.79274 45.75
      vertex -3.05 0 45.75
      vertex -1.99625 1.45036 49.3355
    endloop
  endfacet
  facet normal -0.580892 0.79953 0.152696
    outer loop
      vertex -0.942502 2.90072 45.75
      vertex -2.4675 1.79274 45.75
      vertex -0.7625 2.34673 49.3355
    endloop
  endfacet
  facet normal -0.580893 0.79953 0.152697
    outer loop
      vertex -0.7625 2.34673 49.3355
      vertex -2.4675 1.79274 45.75
      vertex -1.99625 1.45036 49.3355
    endloop
  endfacet
  facet normal -0.939904 0.305393 0.152697
    outer loop
      vertex -1.99625 1.45036 49.3355
      vertex -3.05 0 45.75
      vertex -2.4675 0 49.3355
    endloop
  endfacet
  facet normal -0.939904 -0.305393 0.152697
    outer loop
      vertex -2.4675 0 49.3355
      vertex -3.05 0 45.75
      vertex -2.4675 -1.79274 45.75
    endloop
  endfacet
  facet normal -0.939904 -0.305393 0.152697
    outer loop
      vertex -2.4675 0 49.3355
      vertex -2.4675 -1.79274 45.75
      vertex -1.99625 -1.45036 49.3355
    endloop
  endfacet
  facet normal -0.580892 -0.79953 0.152697
    outer loop
      vertex -1.99625 -1.45036 49.3355
      vertex -2.4675 -1.79274 45.75
      vertex -0.942502 -2.90072 45.75
    endloop
  endfacet
  facet normal -0.580893 -0.79953 0.152696
    outer loop
      vertex -0.7625 -2.34673 49.3355
      vertex -1.99625 -1.45036 49.3355
      vertex -0.942502 -2.90072 45.75
    endloop
  endfacet
  facet normal 0 -0.988273 0.152696
    outer loop
      vertex -0.7625 -2.34673 49.3355
      vertex -0.942502 -2.90072 45.75
      vertex 0.942502 -2.90072 45.75
    endloop
  endfacet
  facet normal 0 -0.988273 0.152696
    outer loop
      vertex 0.7625 -2.34673 49.3355
      vertex -0.7625 -2.34673 49.3355
      vertex 0.942502 -2.90072 45.75
    endloop
  endfacet
  facet normal 0.580892 -0.79953 0.152696
    outer loop
      vertex 2.4675 -1.79274 45.75
      vertex 0.7625 -2.34673 49.3355
      vertex 0.942502 -2.90072 45.75
    endloop
  endfacet
  facet normal 0.580893 -0.79953 0.152697
    outer loop
      vertex 1.99625 -1.45036 49.3355
      vertex 0.7625 -2.34673 49.3355
      vertex 2.4675 -1.79274 45.75
    endloop
  endfacet
  facet normal 0.939904 -0.305393 0.152697
    outer loop
      vertex 2.80225 -0.7625 45.75
      vertex 1.99625 -1.45036 49.3355
      vertex 2.4675 -1.79274 45.75
    endloop
  endfacet
  facet normal 0.939904 -0.305393 0.152697
    outer loop
      vertex 3.05 0 45.75
      vertex 1.99625 -1.45036 49.3355
      vertex 2.80225 -0.7625 45.75
    endloop
  endfacet
  facet normal 0.951057 -0.309017 0
    outer loop
      vertex 3.05 0 45.75
      vertex 2.80225 -0.7625 45.75
      vertex 3.05 0 45.3098
    endloop
  endfacet
  facet normal 0.951057 0.309017 0
    outer loop
      vertex 3.05 0 45.3098
      vertex 2.4675 1.79274 44.2747
      vertex 2.4675 1.79274 45.75
    endloop
  endfacet
  facet normal 0.951057 0.309017 -0
    outer loop
      vertex 3.05 0 45.75
      vertex 3.05 0 45.3098
      vertex 2.4675 1.79274 45.75
    endloop
  endfacet
  facet normal 0.587785 0.809017 0
    outer loop
      vertex 0.942502 2.90072 43.635
      vertex 0.942502 2.90072 45.75
      vertex 2.4675 1.79274 44.2747
    endloop
  endfacet
  facet normal 0.587785 0.809017 0
    outer loop
      vertex 2.4675 1.79274 44.2747
      vertex 0.942502 2.90072 45.75
      vertex 2.4675 1.79274 45.75
    endloop
  endfacet
  facet normal 0 1 0
    outer loop
      vertex -0.942502 2.90072 43.635
      vertex -0.942502 2.90072 45.75
      vertex 0.942502 2.90072 43.635
    endloop
  endfacet
  facet normal 0 1 0
    outer loop
      vertex 0.942502 2.90072 43.635
      vertex -0.942502 2.90072 45.75
      vertex 0.942502 2.90072 45.75
    endloop
  endfacet
  facet normal 0 0.988273 0.152696
    outer loop
      vertex -0.942502 2.90072 45.75
      vertex -0.7625 2.34673 49.3355
      vertex 0.942502 2.90072 45.75
    endloop
  endfacet
  facet normal 0 0.988273 0.152696
    outer loop
      vertex 0.942502 2.90072 45.75
      vertex -0.7625 2.34673 49.3355
      vertex 0.7625 2.34673 49.3355
    endloop
  endfacet
  facet normal -0.491809 0.676917 0.547638
    outer loop
      vertex -0.7625 2.34673 49.3355
      vertex -1.99625 1.45036 49.3355
      vertex -0.291249 0.896373 51.5514
    endloop
  endfacet
  facet normal -0.491809 0.676917 0.547638
    outer loop
      vertex -0.291249 0.896373 51.5514
      vertex -1.99625 1.45036 49.3355
      vertex -0.7625 0.553989 51.5514
    endloop
  endfacet
  facet normal -0.795764 0.258559 0.547638
    outer loop
      vertex -1.99625 1.45036 49.3355
      vertex -2.4675 0 49.3355
      vertex -0.7625 0.553989 51.5514
    endloop
  endfacet
  facet normal 0 0.836716 0.547638
    outer loop
      vertex -0.7625 2.34673 49.3355
      vertex -0.291249 0.896373 51.5514
      vertex 0.7625 2.34673 49.3355
    endloop
  endfacet
  facet normal 0 0.836716 0.547638
    outer loop
      vertex 0.7625 2.34673 49.3355
      vertex -0.291249 0.896373 51.5514
      vertex 0.291249 0.896373 51.5514
    endloop
  endfacet
  facet normal -0.795764 0.258559 0.547638
    outer loop
      vertex -0.7625 0.553989 51.5514
      vertex -2.4675 0 49.3355
      vertex -0.942502 0 51.5514
    endloop
  endfacet
  facet normal -0.795764 -0.258559 0.547638
    outer loop
      vertex -0.942502 0 51.5514
      vertex -2.4675 0 49.3355
      vertex -1.99625 -1.45036 49.3355
    endloop
  endfacet
  facet normal -0.795764 -0.258559 0.547638
    outer loop
      vertex -0.942502 0 51.5514
      vertex -1.99625 -1.45036 49.3355
      vertex -0.7625 -0.553989 51.5514
    endloop
  endfacet
  facet normal -0.491809 -0.676917 0.547638
    outer loop
      vertex -0.7625 -0.553989 51.5514
      vertex -1.99625 -1.45036 49.3355
      vertex -0.7625 -2.34673 49.3355
    endloop
  endfacet
  facet normal -0.491809 -0.676917 0.547638
    outer loop
      vertex -0.7625 -0.553989 51.5514
      vertex -0.7625 -2.34673 49.3355
      vertex -0.291249 -0.896373 51.5514
    endloop
  endfacet
  facet normal 0 -0.836716 0.547638
    outer loop
      vertex -0.291249 -0.896373 51.5514
      vertex -0.7625 -2.34673 49.3355
      vertex 0.7625 -2.34673 49.3355
    endloop
  endfacet
  facet normal 0 -0.836716 0.547638
    outer loop
      vertex 0.291249 -0.896373 51.5514
      vertex -0.291249 -0.896373 51.5514
      vertex 0.7625 -2.34673 49.3355
    endloop
  endfacet
  facet normal 0.491809 -0.676917 0.547638
    outer loop
      vertex 1.99625 -1.45036 49.3355
      vertex 0.291249 -0.896373 51.5514
      vertex 0.7625 -2.34673 49.3355
    endloop
  endfacet
  facet normal 0.939904 -0.305393 0.152697
    outer loop
      vertex 2.4675 0 49.3355
      vertex 1.99625 -1.45036 49.3355
      vertex 3.05 0 45.75
    endloop
  endfacet
  facet normal 0.491809 -0.676917 0.547638
    outer loop
      vertex 0.7625 -0.553989 51.5514
      vertex 0.291249 -0.896373 51.5514
      vertex 1.99625 -1.45036 49.3355
    endloop
  endfacet
  facet normal 0.795764 -0.258559 0.547638
    outer loop
      vertex 2.4675 0 49.3355
      vertex 0.7625 -0.553989 51.5514
      vertex 1.99625 -1.45036 49.3355
    endloop
  endfacet
  facet normal 0.939904 0.305393 0.152697
    outer loop
      vertex 2.4675 1.79274 45.75
      vertex 2.4675 0 49.3355
      vertex 3.05 0 45.75
    endloop
  endfacet
  facet normal 0.580892 0.79953 0.152697
    outer loop
      vertex 2.4675 1.79274 45.75
      vertex 0.942502 2.90072 45.75
      vertex 1.99625 1.45036 49.3355
    endloop
  endfacet
  facet normal 0.939904 0.305393 0.152697
    outer loop
      vertex 2.4675 1.79274 45.75
      vertex 1.99625 1.45036 49.3355
      vertex 2.4675 0 49.3355
    endloop
  endfacet
  facet normal 0.580893 0.79953 0.152696
    outer loop
      vertex 0.942502 2.90072 45.75
      vertex 0.7625 2.34673 49.3355
      vertex 1.99625 1.45036 49.3355
    endloop
  endfacet
  facet normal 0.491809 0.676917 0.547638
    outer loop
      vertex 0.7625 2.34673 49.3355
      vertex 0.7625 0.553989 51.5514
      vertex 1.99625 1.45036 49.3355
    endloop
  endfacet
  facet normal 0.491809 0.676917 0.547638
    outer loop
      vertex 0.7625 2.34673 49.3355
      vertex 0.291249 0.896373 51.5514
      vertex 0.7625 0.553989 51.5514
    endloop
  endfacet
  facet normal 0 0 1
    outer loop
      vertex -0.7625 0.553989 51.5514
      vertex -0.942502 0 51.5514
      vertex -0.7625 -0.553989 51.5514
    endloop
  endfacet
  facet normal -0 0 1
    outer loop
      vertex 0.291249 -0.896373 51.5514
      vertex -0.7625 0.553989 51.5514
      vertex -0.291249 -0.896373 51.5514
    endloop
  endfacet
  facet normal 0 0 1
    outer loop
      vertex -0.291249 -0.896373 51.5514
      vertex -0.7625 0.553989 51.5514
      vertex -0.7625 -0.553989 51.5514
    endloop
  endfacet
  facet normal -0 0 1
    outer loop
      vertex 0.7625 -0.553989 51.5514
      vertex -0.7625 0.553989 51.5514
      vertex 0.291249 -0.896373 51.5514
    endloop
  endfacet
  facet normal -0 0 1
    outer loop
      vertex 0.942502 0 51.5514
      vertex -0.7625 0.553989 51.5514
      vertex 0.7625 -0.553989 51.5514
    endloop
  endfacet
  facet normal 0 -0 1
    outer loop
      vertex 0.7625 0.553989 51.5514
      vertex -0.7625 0.553989 51.5514
      vertex 0.942502 0 51.5514
    endloop
  endfacet
  facet normal 0 -0 1
    outer loop
      vertex 0.291249 0.896373 51.5514
      vertex -0.7625 0.553989 51.5514
      vertex 0.7625 0.553989 51.5514
    endloop
  endfacet
  facet normal 0 -0 1
    outer loop
      vertex -0.291249 0.896373 51.5514
      vertex -0.7625 0.553989 51.5514
      vertex 0.291249 0.896373 51.5514
    endloop
  endfacet
  facet normal 0.795764 -0.258559 0.547638
    outer loop
      vertex 0.942502 0 51.5514
      vertex 0.7625 -0.553989 51.5514
      vertex 2.4675 0 49.3355
    endloop
  endfacet
  facet normal 0.795764 0.258559 0.547638
    outer loop
      vertex 1.99625 1.45036 49.3355
      vertex 0.942502 0 51.5514
      vertex 2.4675 0 49.3355
    endloop
  endfacet
  facet normal 0.795764 0.258559 0.547638
    outer loop
      vertex 1.99625 1.45036 49.3355
      vertex 0.7625 0.553989 51.5514
      vertex 0.942502 0 51.5514
    endloop
  endfacet
endsolid OpenSCAD_Model
