solid OpenSCAD_Model
  facet normal 1.21982e-14 1 -3.96343e-15
    outer loop
      vertex -3.05 73.2 -1.62537e-14
      vertex -2.4675 73.2 1.79274
      vertex -2.4675 73.2 -1.79275
    endloop
  endfacet
  facet normal 2.8796e-15 1 -3.96343e-15
    outer loop
      vertex -2.4675 73.2 -1.79275
      vertex -2.4675 73.2 1.79274
      vertex -0.942502 73.2 2.90072
    endloop
  endfacet
  facet normal 0 1 -3.02779e-15
    outer loop
      vertex -2.4675 73.2 -1.79275
      vertex -0.942502 73.2 2.90072
      vertex 0.942502 73.2 2.90072
    endloop
  endfacet
  facet normal -1.4398e-15 1 -1.98172e-15
    outer loop
      vertex -2.4675 73.2 -1.79275
      vertex 0.942502 73.2 2.90072
      vertex 2.4675 73.2 1.79274
    endloop
  endfacet
  facet normal -2.32965e-15 1 -7.56948e-16
    outer loop
      vertex -2.4675 73.2 -1.79275
      vertex 2.4675 73.2 1.79274
      vertex 3.05 73.2 -1.62537e-14
    endloop
  endfacet
  facet normal 0 1 -7.92687e-15
    outer loop
      vertex -2.4675 73.2 -1.79275
      vertex 3.05 73.2 -1.62537e-14
      vertex 2.4675 73.2 -1.79275
    endloop
  endfacet
  facet normal 0 1 0
    outer loop
      vertex -2.4675 73.2 -1.79275
      vertex 2.4675 73.2 -1.79275
      vertex 0.942502 73.2 -2.90072
    endloop
  endfacet
  facet normal 0 1 0
    outer loop
      vertex -2.4675 73.2 -1.79275
      vertex 0.942502 73.2 -2.90072
      vertex -0.942502 73.2 -2.90072
    endloop
  endfacet
  facet normal -0.951057 6.89712e-17 0.309017
    outer loop
      vertex -2.4675 -31.2586 1.79275
      vertex -2.4675 73.2 1.79274
      vertex -3.05 -41.4257 1.26746e-14
    endloop
  endfacet
  facet normal -0.951057 4.65104e-17 0.309017
    outer loop
      vertex -2.4675 -44.2747 1.79275
      vertex -3.05 -45.75 1.01585e-14
      vertex -2.4675 -45.75 1.79275
    endloop
  endfacet
  facet normal -6.90984e-18 8.28984e-34 3.73341e-18
    outer loop
      vertex -3.05 73.2 -1.62537e-14
      vertex -3.05 -45.75 1.01585e-14
      vertex -3.05 -45.3098 1.08827e-14
    endloop
  endfacet
  facet normal -2.26248e-17 1.65945e-33 7.61737e-18
    outer loop
      vertex -3.05 73.2 -1.62537e-14
      vertex -3.05 -45.3098 1.08827e-14
      vertex -3.05 -41.4257 1.26746e-14
    endloop
  endfacet
  facet normal -0.951057 6.69332e-17 0.309017
    outer loop
      vertex -3.05 73.2 -1.62537e-14
      vertex -3.05 -41.4257 1.26746e-14
      vertex -2.4675 73.2 1.79274
    endloop
  endfacet
  facet normal -0.951057 4.51064e-16 0.309017
    outer loop
      vertex -3.05 -45.3098 1.08827e-14
      vertex -3.05 -45.75 1.01585e-14
      vertex -2.4675 -44.2747 1.79275
    endloop
  endfacet
  facet normal -0.951057 -6.84555e-17 -0.309017
    outer loop
      vertex -2.80225 -45.75 -0.7625
      vertex -2.4675 73.2 -1.79275
      vertex -2.4675 -45.75 -1.79274
    endloop
  endfacet
  facet normal -0.951057 -7.02979e-17 -0.309017
    outer loop
      vertex -3.05 73.2 -1.62537e-14
      vertex -2.4675 73.2 -1.79275
      vertex -3.05 -41.4257 5.72211e-15
    endloop
  endfacet
  facet normal -2.92244e-17 -2.48695e-33 -1.12002e-17
    outer loop
      vertex -3.05 73.2 -1.62537e-14
      vertex -3.05 -41.4257 5.72211e-15
      vertex -3.05 -45.75 1.01585e-14
    endloop
  endfacet
  facet normal -1.08233e-16 -3.98358e-32 -7.13315e-17
    outer loop
      vertex -3.05 -41.4257 5.72211e-15
      vertex -3.05 -45.3098 9.23886e-15
      vertex -3.05 -45.75 1.01585e-14
    endloop
  endfacet
  facet normal -3.96343e-15 2.22045e-16 -1.2878e-15
    outer loop
      vertex -3.05 -45.75 1.01585e-14
      vertex -2.80225 -45.75 -0.7625
      vertex -2.4675 -45.75 -1.79274
    endloop
  endfacet
  facet normal -0.951057 -7.386e-17 -0.309017
    outer loop
      vertex -3.05 -41.4257 5.72211e-15
      vertex -2.4675 73.2 -1.79275
      vertex -2.80225 -45.75 -0.7625
    endloop
  endfacet
  facet normal -0.951057 2.74327e-16 -0.309017
    outer loop
      vertex -2.80225 -45.75 -0.7625
      vertex -3.05 -45.75 1.01585e-14
      vertex -3.05 -45.3098 9.23886e-15
    endloop
  endfacet
  facet normal -0.587785 -1.7971e-16 -0.809017
    outer loop
      vertex -2.4675 73.2 -1.79275
      vertex -0.942502 73.2 -2.90072
      vertex -2.41622 10 -1.83
    endloop
  endfacet
  facet normal -0.587785 -1.79713e-16 -0.809017
    outer loop
      vertex -2.4675 73.2 -1.79275
      vertex -2.41622 10 -1.83
      vertex -2.4675 -45.75 -1.79274
    endloop
  endfacet
  facet normal -0.587785 -1.79358e-16 -0.809017
    outer loop
      vertex -0.942502 -14.3882 -2.90072
      vertex -2.4675 -45.75 -1.79274
      vertex -2.41622 -10 -1.83
    endloop
  endfacet
  facet normal -0.587785 -1.79638e-16 -0.809017
    outer loop
      vertex -2.41622 10 -1.83
      vertex -2.41622 -10 -1.83
      vertex -2.4675 -45.75 -1.79274
    endloop
  endfacet
  facet normal -0.587785 -1.73169e-16 -0.809017
    outer loop
      vertex -2.4675 -45.75 -1.79274
      vertex -0.942502 -14.3882 -2.90072
      vertex -0.942502 -45.75 -2.90072
    endloop
  endfacet
  facet normal -0.587785 -1.77858e-16 -0.809017
    outer loop
      vertex -2.41622 10 -1.83
      vertex -0.942502 73.2 -2.90072
      vertex -0.942502 14.3882 -2.90072
    endloop
  endfacet
  facet normal -0 -2.1898e-16 -1
    outer loop
      vertex -0.942502 73.2 -2.90072
      vertex 0.942502 73.2 -2.90072
      vertex -0.942502 14.3882 -2.90072
    endloop
  endfacet
  facet normal -0 -2.1898e-16 -1
    outer loop
      vertex -0.942502 14.3882 -2.90072
      vertex 0.942502 73.2 -2.90072
      vertex 0.942502 14.3882 -2.90072
    endloop
  endfacet
  facet normal 0.587785 -1.77158e-16 -0.809017
    outer loop
      vertex 0.942502 73.2 -2.90072
      vertex 2.4675 73.2 -1.79275
      vertex 0.942502 14.3882 -2.90072
    endloop
  endfacet
  facet normal 0.587785 -1.79699e-16 -0.809017
    outer loop
      vertex 2.41622 -10 -1.83
      vertex 2.4675 73.2 -1.79275
      vertex 2.4675 -45.75 -1.79274
    endloop
  endfacet
  facet normal 0.587785 -1.71838e-16 -0.809017
    outer loop
      vertex 0.942502 -14.3882 -2.90072
      vertex 2.4675 -45.75 -1.79274
      vertex 0.942502 -45.75 -2.90072
    endloop
  endfacet
  facet normal 0.587785 -1.79638e-16 -0.809017
    outer loop
      vertex 2.41622 10 -1.83
      vertex 2.4675 73.2 -1.79275
      vertex 2.41622 -10 -1.83
    endloop
  endfacet
  facet normal 0.587785 -1.81972e-16 -0.809017
    outer loop
      vertex 0.942502 14.3882 -2.90072
      vertex 2.4675 73.2 -1.79275
      vertex 2.41622 10 -1.83
    endloop
  endfacet
  facet normal 0.587785 -1.74663e-16 -0.809017
    outer loop
      vertex 2.41622 -10 -1.83
      vertex 2.4675 -45.75 -1.79274
      vertex 0.942502 -14.3882 -2.90072
    endloop
  endfacet
  facet normal 0.951057 -6.86444e-17 -0.309017
    outer loop
      vertex 2.4675 -45.75 -1.79274
      vertex 2.4675 73.2 -1.79275
      vertex 3.05 73.2 -1.62537e-14
    endloop
  endfacet
  facet normal 0.951057 -2.42371e-16 -0.309017
    outer loop
      vertex 2.80225 -45.75 -0.7625
      vertex 2.4675 -45.75 -1.79274
      vertex 3.05 -41.4257 9.19835e-15
    endloop
  endfacet
  facet normal 0.951057 -6.86155e-17 -0.309017
    outer loop
      vertex 3.05 -41.4257 9.19835e-15
      vertex 2.4675 -45.75 -1.79274
      vertex 3.05 73.2 -1.62537e-14
    endloop
  endfacet
  facet normal 0.951057 6.8343e-17 0.309017
    outer loop
      vertex 3.05 73.2 -1.62537e-14
      vertex 2.4675 73.2 1.79274
      vertex 2.4675 -31.2586 1.79275
    endloop
  endfacet
  facet normal 0.951057 6.86155e-17 0.309017
    outer loop
      vertex 3.05 -41.4257 9.19835e-15
      vertex 3.05 73.2 -1.62537e-14
      vertex 2.4675 -31.2586 1.79275
    endloop
  endfacet
  facet normal 0.587785 1.759e-16 0.809017
    outer loop
      vertex 2.4675 73.2 1.79274
      vertex 0.942502 73.2 2.90072
      vertex 0.942502 14.3882 2.90072
    endloop
  endfacet
  facet normal 0.587785 1.79638e-16 0.809017
    outer loop
      vertex 2.41622 -10 1.83
      vertex 2.4675 73.2 1.79274
      vertex 2.41622 10 1.83
    endloop
  endfacet
  facet normal 0.587785 1.79768e-16 0.809017
    outer loop
      vertex 2.41622 10 1.83
      vertex 2.4675 73.2 1.79274
      vertex 0.942502 14.3882 2.90072
    endloop
  endfacet
  facet normal 0.587785 1.80569e-16 0.809017
    outer loop
      vertex 2.4675 -31.2586 1.79275
      vertex 2.4675 73.2 1.79274
      vertex 2.41622 -10 1.83
    endloop
  endfacet
  facet normal 0.587785 1.69681e-16 0.809017
    outer loop
      vertex 0.942502 -24.975 2.90072
      vertex 2.41622 -10 1.83
      vertex 0.942502 -14.3882 2.90072
    endloop
  endfacet
  facet normal 0.587785 1.84017e-16 0.809017
    outer loop
      vertex 2.4675 -31.2586 1.79275
      vertex 2.41622 -10 1.83
      vertex 0.942502 -24.975 2.90072
    endloop
  endfacet
  facet normal -0 2.1898e-16 1
    outer loop
      vertex 0.942502 73.2 2.90072
      vertex -0.942502 73.2 2.90072
      vertex -0.942502 14.3882 2.90072
    endloop
  endfacet
  facet normal -0 2.1898e-16 1
    outer loop
      vertex 0.942502 14.3882 2.90072
      vertex 0.942502 73.2 2.90072
      vertex -0.942502 14.3882 2.90072
    endloop
  endfacet
  facet normal -0.587785 1.80551e-16 0.809017
    outer loop
      vertex -2.41622 -10 1.83
      vertex -2.4675 73.2 1.79274
      vertex -2.4675 -31.2586 1.79275
    endloop
  endfacet
  facet normal -0.587785 1.77858e-16 0.809017
    outer loop
      vertex -2.41622 10 1.83
      vertex -0.942502 14.3882 2.90072
      vertex -0.942502 73.2 2.90072
    endloop
  endfacet
  facet normal -0.587785 1.69681e-16 0.809017
    outer loop
      vertex -0.942502 -24.975 2.90072
      vertex -0.942502 -14.3882 2.90072
      vertex -2.4675 -31.2586 1.79275
    endloop
  endfacet
  facet normal -0.587785 1.79638e-16 0.809017
    outer loop
      vertex -2.41622 10 1.83
      vertex -2.4675 73.2 1.79274
      vertex -2.41622 -10 1.83
    endloop
  endfacet
  facet normal -0.587785 1.81755e-16 0.809017
    outer loop
      vertex -0.942502 73.2 2.90072
      vertex -2.4675 73.2 1.79274
      vertex -2.41622 10 1.83
    endloop
  endfacet
  facet normal -0.587785 1.77218e-16 0.809017
    outer loop
      vertex -0.942502 -14.3882 2.90072
      vertex -2.41622 -10 1.83
      vertex -2.4675 -31.2586 1.79275
    endloop
  endfacet
  facet normal 1.38831e-16 -0.17365 0.984807
    outer loop
      vertex 2.4675 -31.2586 1.79275
      vertex -2.80225 -45.75 -0.7625
      vertex 3.05 -41.4257 9.19835e-15
    endloop
  endfacet
  facet normal -1.93136e-17 -0.17365 0.984807
    outer loop
      vertex 3.05 -41.4257 9.19835e-15
      vertex -2.80225 -45.75 -0.7625
      vertex 2.80225 -45.75 -0.7625
    endloop
  endfacet
  facet normal 5.34179e-17 -0.17365 0.984807
    outer loop
      vertex 0.942502 -24.975 2.90072
      vertex -2.80225 -45.75 -0.7625
      vertex 2.4675 -31.2586 1.79275
    endloop
  endfacet
  facet normal 0 -0.17365 0.984807
    outer loop
      vertex -0.942502 -24.975 2.90072
      vertex -2.80225 -45.75 -0.7625
      vertex 0.942502 -24.975 2.90072
    endloop
  endfacet
  facet normal 4.30596e-16 -0.17365 0.984807
    outer loop
      vertex -2.4675 -31.2586 1.79275
      vertex -2.80225 -45.75 -0.7625
      vertex -0.942502 -24.975 2.90072
    endloop
  endfacet
  facet normal 8.41284e-16 -0.17365 0.984807
    outer loop
      vertex -3.05 -41.4257 1.26746e-14
      vertex -2.80225 -45.75 -0.7625
      vertex -2.4675 -31.2586 1.79275
    endloop
  endfacet
  facet normal 1.30623e-16 -9.21132e-17 5.64837e-16
    outer loop
      vertex -3.05 -41.4257 5.72211e-15
      vertex -2.80225 -45.75 -0.7625
      vertex -3.05 -41.4257 1.26746e-14
    endloop
  endfacet
  facet normal 1.78999e-15 -4.0932e-31 2.50995e-30
    outer loop
      vertex -3.05 -41.4257 5.72211e-15
      vertex -3.05 -41.4257 1.26746e-14
      vertex -3.05 -45.3098 1.08827e-14
    endloop
  endfacet
  facet normal 4.23228e-16 -9.678e-32 0
    outer loop
      vertex -3.05 -45.3098 9.23886e-15
      vertex -3.05 -41.4257 5.72211e-15
      vertex -3.05 -45.3098 1.08827e-14
    endloop
  endfacet
  facet normal 1.24469e-15 7.00484e-16 0
    outer loop
      vertex -3.05 -45.3098 9.23886e-15
      vertex -3.05 -45.3098 1.08827e-14
      vertex -2.80225 -45.75 -0.7625
    endloop
  endfacet
  facet normal -3.53355e-16 0.866025 -0.5
    outer loop
      vertex -2.80225 -45.75 -0.7625
      vertex -3.05 -45.3098 1.08827e-14
      vertex -2.4675 -44.2747 1.79275
    endloop
  endfacet
  facet normal -5.48901e-16 0.866025 -0.5
    outer loop
      vertex -2.80225 -45.75 -0.7625
      vertex -2.4675 -44.2747 1.79275
      vertex -0.942502 -43.635 2.90072
    endloop
  endfacet
  facet normal 0 0.866025 -0.5
    outer loop
      vertex -2.80225 -45.75 -0.7625
      vertex -0.942502 -43.635 2.90072
      vertex 0.942502 -43.635 2.90072
    endloop
  endfacet
  facet normal 2.05695e-16 0.866025 -0.5
    outer loop
      vertex -2.80225 -45.75 -0.7625
      vertex 0.942502 -43.635 2.90072
      vertex 2.4675 -44.2747 1.79275
    endloop
  endfacet
  facet normal -5.64598e-17 0.866025 -0.5
    outer loop
      vertex -2.80225 -45.75 -0.7625
      vertex 2.4675 -44.2747 1.79275
      vertex 3.05 -45.3098 1.00608e-14
    endloop
  endfacet
  facet normal 1.07814e-15 0.866025 -0.5
    outer loop
      vertex -2.80225 -45.75 -0.7625
      vertex 3.05 -45.3098 1.00608e-14
      vertex 2.80225 -45.75 -0.7625
    endloop
  endfacet
  facet normal -0.587785 1.7858e-16 0.809017
    outer loop
      vertex -0.942502 -43.635 2.90072
      vertex -2.4675 -44.2747 1.79275
      vertex -2.4675 -45.75 1.79275
    endloop
  endfacet
  facet normal -0.587785 1.69873e-16 0.809017
    outer loop
      vertex -0.942502 -45.75 2.90072
      vertex -0.942502 -43.635 2.90072
      vertex -2.4675 -45.75 1.79275
    endloop
  endfacet
  facet normal -0.939904 -0.152697 0.305393
    outer loop
      vertex -2.4675 -45.75 1.79275
      vertex -3.05 -45.75 1.01585e-14
      vertex -1.99625 -49.3355 1.45036
    endloop
  endfacet
  facet normal -0.580892 -0.152696 0.79953
    outer loop
      vertex -0.942502 -45.75 2.90072
      vertex -2.4675 -45.75 1.79275
      vertex -0.7625 -49.3355 2.34673
    endloop
  endfacet
  facet normal -0.580893 -0.152697 0.79953
    outer loop
      vertex -0.7625 -49.3355 2.34673
      vertex -2.4675 -45.75 1.79275
      vertex -1.99625 -49.3355 1.45036
    endloop
  endfacet
  facet normal -0.939904 -0.152697 0.305393
    outer loop
      vertex -1.99625 -49.3355 1.45036
      vertex -3.05 -45.75 1.01585e-14
      vertex -2.4675 -49.3355 1.09547e-14
    endloop
  endfacet
  facet normal -0.939904 -0.152697 -0.305393
    outer loop
      vertex -2.4675 -49.3355 1.09547e-14
      vertex -3.05 -45.75 1.01585e-14
      vertex -2.4675 -45.75 -1.79274
    endloop
  endfacet
  facet normal -0.939904 -0.152697 -0.305393
    outer loop
      vertex -2.4675 -49.3355 1.09547e-14
      vertex -2.4675 -45.75 -1.79274
      vertex -1.99625 -49.3355 -1.45036
    endloop
  endfacet
  facet normal -0.580892 -0.152697 -0.79953
    outer loop
      vertex -1.99625 -49.3355 -1.45036
      vertex -2.4675 -45.75 -1.79274
      vertex -0.942502 -45.75 -2.90072
    endloop
  endfacet
  facet normal -0.580893 -0.152696 -0.79953
    outer loop
      vertex -0.7625 -49.3355 -2.34673
      vertex -1.99625 -49.3355 -1.45036
      vertex -0.942502 -45.75 -2.90072
    endloop
  endfacet
  facet normal -0 -0.152696 -0.988273
    outer loop
      vertex -0.942502 -45.75 -2.90072
      vertex 0.942502 -45.75 -2.90072
      vertex -0.7625 -49.3355 -2.34673
    endloop
  endfacet
  facet normal -0 -0.152696 -0.988273
    outer loop
      vertex -0.7625 -49.3355 -2.34673
      vertex 0.942502 -45.75 -2.90072
      vertex 0.7625 -49.3355 -2.34673
    endloop
  endfacet
  facet normal -0 -2.12403e-16 -1
    outer loop
      vertex -0.942502 -14.3882 -2.90072
      vertex 0.942502 -14.3882 -2.90072
      vertex -0.942502 -45.75 -2.90072
    endloop
  endfacet
  facet normal -0 -2.12403e-16 -1
    outer loop
      vertex -0.942502 -45.75 -2.90072
      vertex 0.942502 -14.3882 -2.90072
      vertex 0.942502 -45.75 -2.90072
    endloop
  endfacet
  facet normal 0 0.237046 -0.971499
    outer loop
      vertex 0.942502 -14.3882 -2.90072
      vertex -0.942502 -14.3882 -2.90072
      vertex 2.41622 -10 -1.83
    endloop
  endfacet
  facet normal 1.31774e-16 0.237046 -0.971499
    outer loop
      vertex 2.41622 -10 -1.83
      vertex -0.942502 -14.3882 -2.90072
      vertex -2.41622 -10 -1.83
    endloop
  endfacet
  facet normal 4.59487e-17 -2.22045e-16 -1
    outer loop
      vertex 2.41622 -10 -1.83
      vertex -2.41622 -10 -1.83
      vertex 2.41622 10 -1.83
    endloop
  endfacet
  facet normal 4.59487e-17 -2.22045e-16 -1
    outer loop
      vertex 2.41622 10 -1.83
      vertex -2.41622 -10 -1.83
      vertex -2.41622 10 -1.83
    endloop
  endfacet
  facet normal 0 -0.237046 -0.971499
    outer loop
      vertex 0.942502 14.3882 -2.90072
      vertex 2.41622 10 -1.83
      vertex -0.942502 14.3882 -2.90072
    endloop
  endfacet
  facet normal -7.3457e-17 -0.237046 -0.971499
    outer loop
      vertex -0.942502 14.3882 -2.90072
      vertex 2.41622 10 -1.83
      vertex -2.41622 10 -1.83
    endloop
  endfacet
  facet normal 0.580892 -0.152696 -0.79953
    outer loop
      vertex 2.4675 -45.75 -1.79274
      vertex 0.7625 -49.3355 -2.34673
      vertex 0.942502 -45.75 -2.90072
    endloop
  endfacet
  facet normal 0.580893 -0.152697 -0.79953
    outer loop
      vertex 1.99625 -49.3355 -1.45036
      vertex 0.7625 -49.3355 -2.34673
      vertex 2.4675 -45.75 -1.79274
    endloop
  endfacet
  facet normal 0.939904 -0.152697 -0.305393
    outer loop
      vertex 2.80225 -45.75 -0.7625
      vertex 1.99625 -49.3355 -1.45036
      vertex 2.4675 -45.75 -1.79274
    endloop
  endfacet
  facet normal 0.939904 -0.152697 -0.305393
    outer loop
      vertex 3.05 -45.75 1.01585e-14
      vertex 1.99625 -49.3355 -1.45036
      vertex 2.80225 -45.75 -0.7625
    endloop
  endfacet
  facet normal -0 2.09737e-16 1
    outer loop
      vertex 0.942502 -14.3882 2.90072
      vertex -0.942502 -14.3882 2.90072
      vertex -0.942502 -24.975 2.90072
    endloop
  endfacet
  facet normal -0 2.09737e-16 1
    outer loop
      vertex 0.942502 -24.975 2.90072
      vertex 0.942502 -14.3882 2.90072
      vertex -0.942502 -24.975 2.90072
    endloop
  endfacet
  facet normal 0 0.237046 0.971499
    outer loop
      vertex -0.942502 -14.3882 2.90072
      vertex 0.942502 -14.3882 2.90072
      vertex 2.41622 -10 1.83
    endloop
  endfacet
  facet normal 4.67817e-17 0.237046 0.971499
    outer loop
      vertex -2.41622 -10 1.83
      vertex -0.942502 -14.3882 2.90072
      vertex 2.41622 -10 1.83
    endloop
  endfacet
  facet normal 1.37846e-16 2.22045e-16 1
    outer loop
      vertex -2.41622 -10 1.83
      vertex 2.41622 -10 1.83
      vertex 2.41622 10 1.83
    endloop
  endfacet
  facet normal 1.37846e-16 2.22045e-16 1
    outer loop
      vertex -2.41622 10 1.83
      vertex -2.41622 -10 1.83
      vertex 2.41622 10 1.83
    endloop
  endfacet
  facet normal 0 -0.237046 0.971499
    outer loop
      vertex 2.41622 10 1.83
      vertex 0.942502 14.3882 2.90072
      vertex -0.942502 14.3882 2.90072
    endloop
  endfacet
  facet normal 2.21053e-16 -0.237046 0.971499
    outer loop
      vertex -2.41622 10 1.83
      vertex 2.41622 10 1.83
      vertex -0.942502 14.3882 2.90072
    endloop
  endfacet
  facet normal 0.951057 -6.86155e-17 -0.309017
    outer loop
      vertex 3.05 -45.75 1.01585e-14
      vertex 2.80225 -45.75 -0.7625
      vertex 3.05 -45.3098 1.00608e-14
    endloop
  endfacet
  facet normal 0.951057 6.41553e-17 0.309017
    outer loop
      vertex 3.05 -45.3098 1.00608e-14
      vertex 2.4675 -44.2747 1.79275
      vertex 2.4675 -45.75 1.79275
    endloop
  endfacet
  facet normal 0.951057 6.86155e-17 0.309017
    outer loop
      vertex 3.05 -45.75 1.01585e-14
      vertex 3.05 -45.3098 1.00608e-14
      vertex 2.4675 -45.75 1.79275
    endloop
  endfacet
  facet normal 0.587785 1.94292e-16 0.809017
    outer loop
      vertex 2.4675 -44.2747 1.79275
      vertex 0.942502 -43.635 2.90072
      vertex 0.942502 -45.75 2.90072
    endloop
  endfacet
  facet normal 0.587785 1.21766e-16 0.809017
    outer loop
      vertex 2.4675 -45.75 1.79275
      vertex 2.4675 -44.2747 1.79275
      vertex 0.942502 -45.75 2.90072
    endloop
  endfacet
  facet normal -0 2.09975e-16 1
    outer loop
      vertex 0.942502 -43.635 2.90072
      vertex -0.942502 -43.635 2.90072
      vertex -0.942502 -45.75 2.90072
    endloop
  endfacet
  facet normal -0 2.09975e-16 1
    outer loop
      vertex 0.942502 -45.75 2.90072
      vertex 0.942502 -43.635 2.90072
      vertex -0.942502 -45.75 2.90072
    endloop
  endfacet
  facet normal 0 -0.152696 0.988273
    outer loop
      vertex 0.942502 -45.75 2.90072
      vertex -0.942502 -45.75 2.90072
      vertex -0.7625 -49.3355 2.34673
    endloop
  endfacet
  facet normal 0 -0.152696 0.988273
    outer loop
      vertex 0.7625 -49.3355 2.34673
      vertex 0.942502 -45.75 2.90072
      vertex -0.7625 -49.3355 2.34673
    endloop
  endfacet
  facet normal -0.491809 -0.547638 0.676917
    outer loop
      vertex -0.7625 -49.3355 2.34673
      vertex -1.99625 -49.3355 1.45036
      vertex -0.291249 -51.5514 0.896373
    endloop
  endfacet
  facet normal -0.491809 -0.547638 0.676917
    outer loop
      vertex -0.291249 -51.5514 0.896373
      vertex -1.99625 -49.3355 1.45036
      vertex -0.7625 -51.5514 0.553989
    endloop
  endfacet
  facet normal -0.795764 -0.547638 0.258559
    outer loop
      vertex -1.99625 -49.3355 1.45036
      vertex -2.4675 -49.3355 1.09547e-14
      vertex -0.7625 -51.5514 0.553989
    endloop
  endfacet
  facet normal 0 -0.547638 0.836716
    outer loop
      vertex 0.7625 -49.3355 2.34673
      vertex -0.7625 -49.3355 2.34673
      vertex -0.291249 -51.5514 0.896373
    endloop
  endfacet
  facet normal 0 -0.547638 0.836716
    outer loop
      vertex 0.291249 -51.5514 0.896373
      vertex 0.7625 -49.3355 2.34673
      vertex -0.291249 -51.5514 0.896373
    endloop
  endfacet
  facet normal -0.795764 -0.547638 0.258559
    outer loop
      vertex -0.7625 -51.5514 0.553989
      vertex -2.4675 -49.3355 1.09547e-14
      vertex -0.942502 -51.5514 1.14467e-14
    endloop
  endfacet
  facet normal -0.795764 -0.547638 -0.258559
    outer loop
      vertex -0.942502 -51.5514 1.14467e-14
      vertex -2.4675 -49.3355 1.09547e-14
      vertex -1.99625 -49.3355 -1.45036
    endloop
  endfacet
  facet normal -0.795764 -0.547638 -0.258559
    outer loop
      vertex -0.942502 -51.5514 1.14467e-14
      vertex -1.99625 -49.3355 -1.45036
      vertex -0.7625 -51.5514 -0.553989
    endloop
  endfacet
  facet normal -0.491809 -0.547638 -0.676917
    outer loop
      vertex -0.7625 -51.5514 -0.553989
      vertex -1.99625 -49.3355 -1.45036
      vertex -0.7625 -49.3355 -2.34673
    endloop
  endfacet
  facet normal -0.491809 -0.547638 -0.676917
    outer loop
      vertex -0.7625 -51.5514 -0.553989
      vertex -0.7625 -49.3355 -2.34673
      vertex -0.291249 -51.5514 -0.896373
    endloop
  endfacet
  facet normal -0 -0.547638 -0.836716
    outer loop
      vertex -0.7625 -49.3355 -2.34673
      vertex 0.7625 -49.3355 -2.34673
      vertex -0.291249 -51.5514 -0.896373
    endloop
  endfacet
  facet normal -0 -0.547638 -0.836716
    outer loop
      vertex -0.291249 -51.5514 -0.896373
      vertex 0.7625 -49.3355 -2.34673
      vertex 0.291249 -51.5514 -0.896373
    endloop
  endfacet
  facet normal 0.491809 -0.547638 -0.676917
    outer loop
      vertex 1.99625 -49.3355 -1.45036
      vertex 0.291249 -51.5514 -0.896373
      vertex 0.7625 -49.3355 -2.34673
    endloop
  endfacet
  facet normal 0.939904 -0.152697 -0.305393
    outer loop
      vertex 2.4675 -49.3355 1.09547e-14
      vertex 1.99625 -49.3355 -1.45036
      vertex 3.05 -45.75 1.01585e-14
    endloop
  endfacet
  facet normal 0.491809 -0.547638 -0.676917
    outer loop
      vertex 0.7625 -51.5514 -0.553989
      vertex 0.291249 -51.5514 -0.896373
      vertex 1.99625 -49.3355 -1.45036
    endloop
  endfacet
  facet normal 0.795764 -0.547638 -0.258559
    outer loop
      vertex 2.4675 -49.3355 1.09547e-14
      vertex 0.7625 -51.5514 -0.553989
      vertex 1.99625 -49.3355 -1.45036
    endloop
  endfacet
  facet normal 0.939904 -0.152697 0.305393
    outer loop
      vertex 2.4675 -45.75 1.79275
      vertex 2.4675 -49.3355 1.09547e-14
      vertex 3.05 -45.75 1.01585e-14
    endloop
  endfacet
  facet normal 0.580892 -0.152697 0.79953
    outer loop
      vertex 2.4675 -45.75 1.79275
      vertex 0.942502 -45.75 2.90072
      vertex 1.99625 -49.3355 1.45036
    endloop
  endfacet
  facet normal 0.939904 -0.152697 0.305393
    outer loop
      vertex 2.4675 -45.75 1.79275
      vertex 1.99625 -49.3355 1.45036
      vertex 2.4675 -49.3355 1.09547e-14
    endloop
  endfacet
  facet normal 0.580893 -0.152696 0.79953
    outer loop
      vertex 0.942502 -45.75 2.90072
      vertex 0.7625 -49.3355 2.34673
      vertex 1.99625 -49.3355 1.45036
    endloop
  endfacet
  facet normal 0.491809 -0.547638 0.676917
    outer loop
      vertex 0.7625 -49.3355 2.34673
      vertex 0.7625 -51.5514 0.553989
      vertex 1.99625 -49.3355 1.45036
    endloop
  endfacet
  facet normal 0.491809 -0.547638 0.676917
    outer loop
      vertex 0.7625 -49.3355 2.34673
      vertex 0.291249 -51.5514 0.896373
      vertex 0.7625 -51.5514 0.553989
    endloop
  endfacet
  facet normal 0 -1 0
    outer loop
      vertex -0.7625 -51.5514 0.553989
      vertex -0.942502 -51.5514 1.14467e-14
      vertex -0.7625 -51.5514 -0.553989
    endloop
  endfacet
  facet normal 0 -1 0
    outer loop
      vertex 0.291249 -51.5514 -0.896373
      vertex -0.7625 -51.5514 0.553989
      vertex -0.291249 -51.5514 -0.896373
    endloop
  endfacet
  facet normal 0 -1 0
    outer loop
      vertex -0.291249 -51.5514 -0.896373
      vertex -0.7625 -51.5514 0.553989
      vertex -0.7625 -51.5514 -0.553989
    endloop
  endfacet
  facet normal 0 -1 0
    outer loop
      vertex 0.7625 -51.5514 -0.553989
      vertex -0.7625 -51.5514 0.553989
      vertex 0.291249 -51.5514 -0.896373
    endloop
  endfacet
  facet normal 0 -1 0
    outer loop
      vertex 0.942502 -51.5514 1.14467e-14
      vertex -0.7625 -51.5514 0.553989
      vertex 0.7625 -51.5514 -0.553989
    endloop
  endfacet
  facet normal 0 -1 0
    outer loop
      vertex 0.7625 -51.5514 0.553989
      vertex -0.7625 -51.5514 0.553989
      vertex 0.942502 -51.5514 1.14467e-14
    endloop
  endfacet
  facet normal 0 -1 0
    outer loop
      vertex 0.291249 -51.5514 0.896373
      vertex -0.7625 -51.5514 0.553989
      vertex 0.7625 -51.5514 0.553989
    endloop
  endfacet
  facet normal 0 -1 0
    outer loop
      vertex -0.291249 -51.5514 0.896373
      vertex -0.7625 -51.5514 0.553989
      vertex 0.291249 -51.5514 0.896373
    endloop
  endfacet
  facet normal 0.795764 -0.547638 -0.258559
    outer loop
      vertex 0.942502 -51.5514 1.14467e-14
      vertex 0.7625 -51.5514 -0.553989
      vertex 2.4675 -49.3355 1.09547e-14
    endloop
  endfacet
  facet normal 0.795764 -0.547638 0.258559
    outer loop
      vertex 1.99625 -49.3355 1.45036
      vertex 0.942502 -51.5514 1.14467e-14
      vertex 2.4675 -49.3355 1.09547e-14
    endloop
  endfacet
  facet normal 0.795764 -0.547638 0.258559
    outer loop
      vertex 1.99625 -49.3355 1.45036
      vertex 0.7625 -51.5514 0.553989
      vertex 0.942502 -51.5514 1.14467e-14
    endloop
  endfacet
endsolid OpenSCAD_Model
