solid OpenSCAD_Model
  facet normal 1.21982e-14 1 -3.96343e-15
    outer loop
      vertex -3.05 100 -2.22045e-14
      vertex -2.4675 100 1.79274
      vertex -2.4675 100 -1.79275
    endloop
  endfacet
  facet normal 2.8796e-15 1 -3.96343e-15
    outer loop
      vertex -2.4675 100 -1.79275
      vertex -2.4675 100 1.79274
      vertex -0.942502 100 2.90072
    endloop
  endfacet
  facet normal 0 1 -3.02779e-15
    outer loop
      vertex -2.4675 100 -1.79275
      vertex -0.942502 100 2.90072
      vertex 0.942502 100 2.90072
    endloop
  endfacet
  facet normal -1.4398e-15 1 -1.98172e-15
    outer loop
      vertex -2.4675 100 -1.79275
      vertex 0.942502 100 2.90072
      vertex 2.4675 100 1.79274
    endloop
  endfacet
  facet normal -2.32965e-15 1 -7.56948e-16
    outer loop
      vertex -2.4675 100 -1.79275
      vertex 2.4675 100 1.79274
      vertex 3.05 100 -2.22045e-14
    endloop
  endfacet
  facet normal 0 1 -7.92687e-15
    outer loop
      vertex -2.4675 100 -1.79275
      vertex 3.05 100 -2.22045e-14
      vertex 2.4675 100 -1.79275
    endloop
  endfacet
  facet normal 0 1 0
    outer loop
      vertex -2.4675 100 -1.79275
      vertex 2.4675 100 -1.79275
      vertex 0.942502 100 -2.90072
    endloop
  endfacet
  facet normal 0 1 0
    outer loop
      vertex -2.4675 100 -1.79275
      vertex 0.942502 100 -2.90072
      vertex -0.942502 100 -2.90072
    endloop
  endfacet
  facet normal -0.951057 6.86155e-17 0.309017
    outer loop
      vertex -3.05 100 -2.22045e-14
      vertex -3.05 -25 5.55112e-15
      vertex -2.4675 100 1.79274
    endloop
  endfacet
  facet normal -0.951057 6.82848e-17 0.309017
    outer loop
      vertex -2.4675 100 1.79274
      vertex -3.05 -25 5.55112e-15
      vertex -2.4675 -32.6393 1.79275
    endloop
  endfacet
  facet normal -0.951057 -6.86155e-17 -0.309017
    outer loop
      vertex -3.05 100 -2.22045e-14
      vertex -2.4675 100 -1.79275
      vertex -3.05 -25 5.55112e-15
    endloop
  endfacet
  facet normal -0.951057 -6.94496e-17 -0.309017
    outer loop
      vertex -3.05 -25 5.55112e-15
      vertex -2.4675 100 -1.79275
      vertex -2.4675 -32.6393 -1.79274
    endloop
  endfacet
  facet normal -0.587785 -1.80168e-16 -0.809017
    outer loop
      vertex -2.4675 100 -1.79275
      vertex -0.942502 100 -2.90072
      vertex -2.41622 10 -1.83
    endloop
  endfacet
  facet normal -0.587785 -1.80126e-16 -0.809017
    outer loop
      vertex -2.4675 100 -1.79275
      vertex -2.41622 10 -1.83
      vertex -2.4675 -32.6393 -1.79274
    endloop
  endfacet
  facet normal -0.587785 -1.73972e-16 -0.809017
    outer loop
      vertex -0.942502 -14.3882 -2.90072
      vertex -2.4675 -32.6393 -1.79274
      vertex -2.41622 -10 -1.83
    endloop
  endfacet
  facet normal -0.587785 -1.79638e-16 -0.809017
    outer loop
      vertex -2.41622 10 -1.83
      vertex -2.41622 -10 -1.83
      vertex -2.4675 -32.6393 -1.79274
    endloop
  endfacet
  facet normal -0.587785 -1.67856e-16 -0.809017
    outer loop
      vertex -2.4675 -32.6393 -1.79274
      vertex -0.942502 -14.3882 -2.90072
      vertex -0.942502 -50 -2.90072
    endloop
  endfacet
  facet normal -0.587785 -1.4371e-16 -0.809017
    outer loop
      vertex -1.525 -45 -2.47751
      vertex -0.942502 -50 -2.90072
      vertex -1.525 -50 -2.47751
    endloop
  endfacet
  facet normal -0.587785 -3.82587e-16 -0.809017
    outer loop
      vertex -2.4675 -32.6393 -1.79274
      vertex -0.942502 -50 -2.90072
      vertex -1.525 -45 -2.47751
    endloop
  endfacet
  facet normal -0.587785 -1.80199e-16 -0.809017
    outer loop
      vertex -2.41622 10 -1.83
      vertex -0.942502 100 -2.90072
      vertex -0.942502 14.3882 -2.90072
    endloop
  endfacet
  facet normal -0 -2.23051e-16 -1
    outer loop
      vertex -0.942502 100 -2.90072
      vertex 0.942502 100 -2.90072
      vertex -0.942502 14.3882 -2.90072
    endloop
  endfacet
  facet normal -0 -2.23051e-16 -1
    outer loop
      vertex -0.942502 14.3882 -2.90072
      vertex 0.942502 100 -2.90072
      vertex 0.942502 14.3882 -2.90072
    endloop
  endfacet
  facet normal 0.587785 -1.80452e-16 -0.809017
    outer loop
      vertex 0.942502 100 -2.90072
      vertex 2.4675 100 -1.79275
      vertex 0.942502 14.3882 -2.90072
    endloop
  endfacet
  facet normal 0.587785 -1.80163e-16 -0.809017
    outer loop
      vertex 2.41622 -10 -1.83
      vertex 2.4675 100 -1.79275
      vertex 2.4675 -32.6393 -1.79274
    endloop
  endfacet
  facet normal 0.587785 -1.71507e-16 -0.809017
    outer loop
      vertex 0.942502 -14.3882 -2.90072
      vertex 1.525 -50 -2.47751
      vertex 0.942502 -50 -2.90072
    endloop
  endfacet
  facet normal 0.587785 -1.79638e-16 -0.809017
    outer loop
      vertex 2.41622 10 -1.83
      vertex 2.4675 100 -1.79275
      vertex 2.41622 -10 -1.83
    endloop
  endfacet
  facet normal 0.587785 -1.82666e-16 -0.809017
    outer loop
      vertex 0.942502 14.3882 -2.90072
      vertex 2.4675 100 -1.79275
      vertex 2.41622 10 -1.83
    endloop
  endfacet
  facet normal 0.587785 -1.73304e-16 -0.809017
    outer loop
      vertex 2.41622 -10 -1.83
      vertex 2.4675 -32.6393 -1.79274
      vertex 1.525 -45 -2.47751
    endloop
  endfacet
  facet normal 0.587785 -2.0237e-16 -0.809017
    outer loop
      vertex 1.525 -45 -2.47751
      vertex 1.525 -50 -2.47751
      vertex 0.942502 -14.3882 -2.90072
    endloop
  endfacet
  facet normal 0.587785 -1.82578e-16 -0.809017
    outer loop
      vertex 2.41622 -10 -1.83
      vertex 1.525 -45 -2.47751
      vertex 0.942502 -14.3882 -2.90072
    endloop
  endfacet
  facet normal 0.951057 -6.88021e-17 -0.309017
    outer loop
      vertex 2.4675 -32.6393 -1.79274
      vertex 2.4675 100 -1.79275
      vertex 3.05 100 -2.22045e-14
    endloop
  endfacet
  facet normal 0.951057 -6.86155e-17 -0.309017
    outer loop
      vertex 3.05 -25 5.55112e-15
      vertex 2.4675 -32.6393 -1.79274
      vertex 3.05 100 -2.22045e-14
    endloop
  endfacet
  facet normal 0.951057 6.77078e-17 0.309017
    outer loop
      vertex 3.05 100 -2.22045e-14
      vertex 2.4675 100 1.79274
      vertex 2.4675 -32.6393 1.79275
    endloop
  endfacet
  facet normal 0.951057 6.86155e-17 0.309017
    outer loop
      vertex 3.05 -25 5.55112e-15
      vertex 3.05 100 -2.22045e-14
      vertex 2.4675 -32.6393 1.79275
    endloop
  endfacet
  facet normal 0.587785 1.7727e-16 0.809017
    outer loop
      vertex 2.4675 100 1.79274
      vertex 0.942502 100 2.90072
      vertex 0.942502 14.3882 2.90072
    endloop
  endfacet
  facet normal 0.587785 1.79638e-16 0.809017
    outer loop
      vertex 2.41622 -10 1.83
      vertex 2.4675 100 1.79274
      vertex 2.41622 10 1.83
    endloop
  endfacet
  facet normal 0.587785 1.781e-16 0.809017
    outer loop
      vertex 2.41622 10 1.83
      vertex 2.4675 100 1.79274
      vertex 0.942502 14.3882 2.90072
    endloop
  endfacet
  facet normal 0.587785 1.78772e-16 0.809017
    outer loop
      vertex 2.4675 -32.6393 1.79275
      vertex 2.4675 100 1.79274
      vertex 2.41622 -10 1.83
    endloop
  endfacet
  facet normal 0.587785 1.69506e-16 0.809017
    outer loop
      vertex 0.942502 -29.225 2.90072
      vertex 2.41622 -10 1.83
      vertex 0.942502 -14.3882 2.90072
    endloop
  endfacet
  facet normal 0.587785 1.74954e-16 0.809017
    outer loop
      vertex 2.30102 -34.8227 1.9137
      vertex 2.41622 -10 1.83
      vertex 0.942502 -29.225 2.90072
    endloop
  endfacet
  facet normal 0.587785 1.79009e-16 0.809017
    outer loop
      vertex 2.4675 -32.6393 1.79275
      vertex 2.41622 -10 1.83
      vertex 2.30102 -34.8227 1.9137
    endloop
  endfacet
  facet normal -0 2.17864e-16 1
    outer loop
      vertex 0.942502 100 2.90072
      vertex -0.942502 100 2.90072
      vertex -0.942502 14.3882 2.90072
    endloop
  endfacet
  facet normal -0 2.17864e-16 1
    outer loop
      vertex 0.942502 14.3882 2.90072
      vertex 0.942502 100 2.90072
      vertex -0.942502 14.3882 2.90072
    endloop
  endfacet
  facet normal -0.587785 1.78792e-16 0.809017
    outer loop
      vertex -2.41622 -10 1.83
      vertex -2.4675 100 1.79274
      vertex -2.4675 -32.6393 1.79275
    endloop
  endfacet
  facet normal -0.587785 1.74568e-16 0.809017
    outer loop
      vertex -2.41622 10 1.83
      vertex -0.942502 14.3882 2.90072
      vertex -0.942502 100 2.90072
    endloop
  endfacet
  facet normal -0.587785 1.69506e-16 0.809017
    outer loop
      vertex -0.942502 -29.225 2.90072
      vertex -0.942502 -14.3882 2.90072
      vertex -2.30102 -34.8227 1.9137
    endloop
  endfacet
  facet normal -0.587785 1.79638e-16 0.809017
    outer loop
      vertex -2.41622 10 1.83
      vertex -2.4675 100 1.79274
      vertex -2.41622 -10 1.83
    endloop
  endfacet
  facet normal -0.587785 1.77297e-16 0.809017
    outer loop
      vertex -0.942502 100 2.90072
      vertex -2.4675 100 1.79274
      vertex -2.41622 10 1.83
    endloop
  endfacet
  facet normal -0.587785 1.15032e-16 0.809017
    outer loop
      vertex -0.942502 -14.3882 2.90072
      vertex -2.4675 -32.6393 1.79275
      vertex -2.30102 -34.8227 1.9137
    endloop
  endfacet
  facet normal -0.587785 1.73972e-16 0.809017
    outer loop
      vertex -0.942502 -14.3882 2.90072
      vertex -2.41622 -10 1.83
      vertex -2.4675 -32.6393 1.79275
    endloop
  endfacet
  facet normal -0.997106 -0.0760293 3.41057e-16
    outer loop
      vertex -1.525 -45 -2.47751
      vertex -1.525 -45 0.119143
      vertex -2.4675 -32.6393 -1.79274
    endloop
  endfacet
  facet normal -0.997106 -0.0760293 4.88695e-16
    outer loop
      vertex -2.4675 -32.6393 -1.79274
      vertex -1.525 -45 0.119143
      vertex -2.30102 -34.8227 1.9137
    endloop
  endfacet
  facet normal -0.997106 -0.0760293 3.01337e-16
    outer loop
      vertex -2.4675 -32.6393 -1.79274
      vertex -2.30102 -34.8227 1.9137
      vertex -2.4675 -32.6393 1.79275
    endloop
  endfacet
  facet normal -0.997106 -0.0760293 3.01337e-16
    outer loop
      vertex -2.4675 -32.6393 -1.79274
      vertex -2.4675 -32.6393 1.79275
      vertex -3.05 -25 5.55112e-15
    endloop
  endfacet
  facet normal -1 8.10656e-17 4.24465e-16
    outer loop
      vertex -1.525 -51.982 -2.09898
      vertex -1.525 -53.5855 -1.79275
      vertex -1.525 -54.4319 -1.10798
    endloop
  endfacet
  facet normal -1 -1.31167e-16 -1.00203e-16
    outer loop
      vertex -1.525 -51.982 -2.09898
      vertex -1.525 -54.4319 -1.10798
      vertex -1.525 -50 -2.47751
    endloop
  endfacet
  facet normal -1 1.45014e-16 7.93539e-16
    outer loop
      vertex -1.525 -54.4319 -1.10798
      vertex -1.525 -54.5765 -0.80174
      vertex -1.525 -50 -2.47751
    endloop
  endfacet
  facet normal -1 -5.33703e-17 2.51755e-16
    outer loop
      vertex -1.525 -54.5765 -0.80174
      vertex -1.525 -54.955 1.22025e-14
      vertex -1.525 -50 -2.47751
    endloop
  endfacet
  facet normal -1 -1.45015e-16 6.84667e-17
    outer loop
      vertex -1.525 -54.955 1.22025e-14
      vertex -1.525 -54.8104 0.306238
      vertex -1.525 -50 -2.47751
    endloop
  endfacet
  facet normal -1 -1.9137e-17 2.85989e-16
    outer loop
      vertex -1.525 -54.8104 0.306238
      vertex -1.525 -54.4319 1.10798
      vertex -1.525 -50 -2.47751
    endloop
  endfacet
  facet normal -1 3.49313e-16 7.41418e-16
    outer loop
      vertex -1.525 -54.4319 1.10798
      vertex -1.525 -54.198 1.29724
      vertex -1.525 -50 -2.47751
    endloop
  endfacet
  facet normal -1 -1.50304e-16 1.85786e-16
    outer loop
      vertex -1.525 -54.198 1.29724
      vertex -1.525 -53.5855 1.79275
      vertex -1.525 -50 -2.47751
    endloop
  endfacet
  facet normal -1 6.79897e-17 3.69075e-16
    outer loop
      vertex -1.525 -53.5855 1.79275
      vertex -1.525 -51.982 2.09898
      vertex -1.525 -50 -2.47751
    endloop
  endfacet
  facet normal -1 -5.99083e-17 3.13684e-16
    outer loop
      vertex -1.525 -51.982 2.09898
      vertex -1.525 -50 2.47751
      vertex -1.525 -50 -2.47751
    endloop
  endfacet
  facet normal -1 8.95535e-32 2.74128e-16
    outer loop
      vertex -1.525 -50 2.47751
      vertex -1.525 -47.2812 2.47751
      vertex -1.525 -50 -0.7625
    endloop
  endfacet
  facet normal -9.3766e-16 2.5865e-17 2.57039e-31
    outer loop
      vertex -1.525 -50 2.47751
      vertex -1.525 -50 -0.7625
      vertex -1.525 -50 -2.47751
    endloop
  endfacet
  facet normal -1 2.37343e-32 3.42047e-16
    outer loop
      vertex -1.525 -45 0.119143
      vertex -1.525 -45 -2.47751
      vertex -1.525 -50 -2.47751
    endloop
  endfacet
  facet normal -1 -2.40795e-17 3.88413e-16
    outer loop
      vertex -1.525 -45 0.119143
      vertex -1.525 -50 -2.47751
      vertex -1.525 -50 -0.7625
    endloop
  endfacet
  facet normal -0.580892 -0.152697 -0.79953
    outer loop
      vertex -1.525 -51.982 -2.09898
      vertex -1.525 -50 -2.47751
      vertex -0.942502 -50 -2.90072
    endloop
  endfacet
  facet normal -0.580893 -0.152696 -0.79953
    outer loop
      vertex -1.525 -51.982 -2.09898
      vertex -0.942502 -50 -2.90072
      vertex -1.525 -53.5855 -1.79275
    endloop
  endfacet
  facet normal -0.580893 -0.152696 -0.79953
    outer loop
      vertex -1.525 -53.5855 -1.79275
      vertex -0.942502 -50 -2.90072
      vertex -0.7625 -53.5855 -2.34673
    endloop
  endfacet
  facet normal -0 -0.152696 -0.988273
    outer loop
      vertex -0.942502 -50 -2.90072
      vertex 0.942502 -50 -2.90072
      vertex -0.7625 -53.5855 -2.34673
    endloop
  endfacet
  facet normal -0 -0.152696 -0.988273
    outer loop
      vertex -0.7625 -53.5855 -2.34673
      vertex 0.942502 -50 -2.90072
      vertex 0.7625 -53.5855 -2.34673
    endloop
  endfacet
  facet normal -0 -2.11995e-16 -1
    outer loop
      vertex -0.942502 -14.3882 -2.90072
      vertex 0.942502 -14.3882 -2.90072
      vertex -0.942502 -50 -2.90072
    endloop
  endfacet
  facet normal -0 -2.11995e-16 -1
    outer loop
      vertex -0.942502 -50 -2.90072
      vertex 0.942502 -14.3882 -2.90072
      vertex 0.942502 -50 -2.90072
    endloop
  endfacet
  facet normal 0 0.237046 -0.971499
    outer loop
      vertex 0.942502 -14.3882 -2.90072
      vertex -0.942502 -14.3882 -2.90072
      vertex 2.41622 -10 -1.83
    endloop
  endfacet
  facet normal 1.31774e-16 0.237046 -0.971499
    outer loop
      vertex 2.41622 -10 -1.83
      vertex -0.942502 -14.3882 -2.90072
      vertex -2.41622 -10 -1.83
    endloop
  endfacet
  facet normal 4.59487e-17 -2.22045e-16 -1
    outer loop
      vertex 2.41622 -10 -1.83
      vertex -2.41622 -10 -1.83
      vertex 2.41622 10 -1.83
    endloop
  endfacet
  facet normal 4.59487e-17 -2.22045e-16 -1
    outer loop
      vertex 2.41622 10 -1.83
      vertex -2.41622 -10 -1.83
      vertex -2.41622 10 -1.83
    endloop
  endfacet
  facet normal 0 -0.237046 -0.971499
    outer loop
      vertex 0.942502 14.3882 -2.90072
      vertex 2.41622 10 -1.83
      vertex -0.942502 14.3882 -2.90072
    endloop
  endfacet
  facet normal -7.3457e-17 -0.237046 -0.971499
    outer loop
      vertex -0.942502 14.3882 -2.90072
      vertex 2.41622 10 -1.83
      vertex -2.41622 10 -1.83
    endloop
  endfacet
  facet normal 0.580892 -0.152696 -0.79953
    outer loop
      vertex 0.7625 -53.5855 -2.34673
      vertex 0.942502 -50 -2.90072
      vertex 1.525 -51.982 -2.09898
    endloop
  endfacet
  facet normal 0.580892 -0.152696 -0.79953
    outer loop
      vertex 1.525 -51.982 -2.09898
      vertex 0.942502 -50 -2.90072
      vertex 1.525 -50 -2.47751
    endloop
  endfacet
  facet normal 1 -1.81268e-16 -2.2406e-16
    outer loop
      vertex 1.525 -54.198 -1.29724
      vertex 1.525 -53.5855 -1.79275
      vertex 1.525 -51.982 -2.09898
    endloop
  endfacet
  facet normal 1 -2.22045e-16 -2.25373e-16
    outer loop
      vertex 1.525 -45 -2.47751
      vertex 1.525 -54.198 -1.29724
      vertex 1.525 -50 -2.47751
    endloop
  endfacet
  facet normal 1 -3.62536e-16 -7.25072e-16
    outer loop
      vertex 1.525 -50 -2.47751
      vertex 1.525 -54.198 -1.29724
      vertex 1.525 -51.982 -2.09898
    endloop
  endfacet
  facet normal 1 -2.28927e-16 -2.79007e-16
    outer loop
      vertex 1.525 -50 -0.7625
      vertex 1.525 -54.198 -1.29724
      vertex 1.525 -45 -2.47751
    endloop
  endfacet
  facet normal 1 -2.21219e-16 -2.56535e-16
    outer loop
      vertex 1.525 -45 0.119143
      vertex 1.525 -50 -0.7625
      vertex 1.525 -45 -2.47751
    endloop
  endfacet
  facet normal 1 -2.45014e-16 -1.98105e-16
    outer loop
      vertex 1.525 -50 2.47751
      vertex 1.525 -54.198 -1.29724
      vertex 1.525 -47.2812 2.47751
    endloop
  endfacet
  facet normal 1 -1.70372e-16 -2.81116e-16
    outer loop
      vertex 1.525 -51.982 2.09898
      vertex 1.525 -54.198 -1.29724
      vertex 1.525 -50 2.47751
    endloop
  endfacet
  facet normal 1 -2.30794e-16 -2.41691e-16
    outer loop
      vertex 1.525 -53.5855 1.79275
      vertex 1.525 -54.198 -1.29724
      vertex 1.525 -51.982 2.09898
    endloop
  endfacet
  facet normal 1 -3.47917e-16 -2.18476e-16
    outer loop
      vertex 1.525 -54.4319 1.10798
      vertex 1.525 -54.198 -1.29724
      vertex 1.525 -53.5855 1.79275
    endloop
  endfacet
  facet normal 1 3.24263e-16 -1.53096e-16
    outer loop
      vertex 1.525 -54.5765 0.80174
      vertex 1.525 -54.198 -1.29724
      vertex 1.525 -54.4319 1.10798
    endloop
  endfacet
  facet normal 1 -1.00203e-16 -2.29644e-16
    outer loop
      vertex 1.525 -54.955 1.22025e-14
      vertex 1.525 -54.198 -1.29724
      vertex 1.525 -54.5765 0.80174
    endloop
  endfacet
  facet normal 1 -4.96972e-15 -3.07146e-15
    outer loop
      vertex 1.525 -54.8104 -0.306238
      vertex 1.525 -54.198 -1.29724
      vertex 1.525 -54.955 1.22025e-14
    endloop
  endfacet
  facet normal 1 0 0
    outer loop
      vertex 1.525 -54.4319 -1.10798
      vertex 1.525 -54.198 -1.29724
      vertex 1.525 -54.8104 -0.306238
    endloop
  endfacet
  facet normal 1 -2.37472e-16 -2.11925e-16
    outer loop
      vertex 1.525 -50 -0.7625
      vertex 1.525 -47.2812 2.47751
      vertex 1.525 -54.198 -1.29724
    endloop
  endfacet
  facet normal 0.997106 -0.0760293 -1.50669e-16
    outer loop
      vertex 2.4675 -32.6393 -1.79274
      vertex 3.05 -25 5.55112e-15
      vertex 2.4675 -32.6393 1.79275
    endloop
  endfacet
  facet normal 0.997106 -0.0760293 -2.03094e-16
    outer loop
      vertex 1.525 -45 0.119143
      vertex 2.4675 -32.6393 -1.79274
      vertex 2.30102 -34.8227 1.9137
    endloop
  endfacet
  facet normal 0.997106 -0.0760293 -1.57841e-16
    outer loop
      vertex 2.30102 -34.8227 1.9137
      vertex 2.4675 -32.6393 -1.79274
      vertex 2.4675 -32.6393 1.79275
    endloop
  endfacet
  facet normal 0.997106 -0.0760293 -4.7748e-17
    outer loop
      vertex 1.525 -45 -2.47751
      vertex 2.4675 -32.6393 -1.79274
      vertex 1.525 -45 0.119143
    endloop
  endfacet
  facet normal -1.79239e-16 -0.17365 0.984807
    outer loop
      vertex -1.525 -45 0.119143
      vertex -1.525 -50 -0.7625
      vertex 1.525 -50 -0.7625
    endloop
  endfacet
  facet normal 4.56043e-16 -0.17365 0.984807
    outer loop
      vertex 2.30102 -34.8227 1.9137
      vertex -1.525 -45 0.119143
      vertex 1.525 -45 0.119143
    endloop
  endfacet
  facet normal 5.47934e-16 -0.17365 0.984807
    outer loop
      vertex 1.525 -45 0.119143
      vertex -1.525 -45 0.119143
      vertex 1.525 -50 -0.7625
    endloop
  endfacet
  facet normal 9.65025e-17 -0.17365 0.984807
    outer loop
      vertex 0.942502 -29.225 2.90072
      vertex -1.525 -45 0.119143
      vertex 2.30102 -34.8227 1.9137
    endloop
  endfacet
  facet normal 0 -0.17365 0.984807
    outer loop
      vertex -0.942502 -29.225 2.90072
      vertex -1.525 -45 0.119143
      vertex 0.942502 -29.225 2.90072
    endloop
  endfacet
  facet normal -3.11634e-16 -0.17365 0.984807
    outer loop
      vertex -2.30102 -34.8227 1.9137
      vertex -1.525 -45 0.119143
      vertex -0.942502 -29.225 2.90072
    endloop
  endfacet
  facet normal -0 2.09521e-16 1
    outer loop
      vertex 0.942502 -14.3882 2.90072
      vertex -0.942502 -14.3882 2.90072
      vertex -0.942502 -29.225 2.90072
    endloop
  endfacet
  facet normal -0 2.09521e-16 1
    outer loop
      vertex 0.942502 -29.225 2.90072
      vertex 0.942502 -14.3882 2.90072
      vertex -0.942502 -29.225 2.90072
    endloop
  endfacet
  facet normal 0 0.237046 0.971499
    outer loop
      vertex -0.942502 -14.3882 2.90072
      vertex 0.942502 -14.3882 2.90072
      vertex 2.41622 -10 1.83
    endloop
  endfacet
  facet normal 4.67817e-17 0.237046 0.971499
    outer loop
      vertex -2.41622 -10 1.83
      vertex -0.942502 -14.3882 2.90072
      vertex 2.41622 -10 1.83
    endloop
  endfacet
  facet normal 1.37846e-16 2.22045e-16 1
    outer loop
      vertex -2.41622 -10 1.83
      vertex 2.41622 -10 1.83
      vertex 2.41622 10 1.83
    endloop
  endfacet
  facet normal 1.37846e-16 2.22045e-16 1
    outer loop
      vertex -2.41622 10 1.83
      vertex -2.41622 -10 1.83
      vertex 2.41622 10 1.83
    endloop
  endfacet
  facet normal 0 -0.237046 0.971499
    outer loop
      vertex 2.41622 10 1.83
      vertex 0.942502 14.3882 2.90072
      vertex -0.942502 14.3882 2.90072
    endloop
  endfacet
  facet normal 2.21053e-16 -0.237046 0.971499
    outer loop
      vertex -2.41622 10 1.83
      vertex 2.41622 10 1.83
      vertex -0.942502 14.3882 2.90072
    endloop
  endfacet
  facet normal 1.62081e-15 0.766037 -0.642797
    outer loop
      vertex -1.525 -50 -0.7625
      vertex -1.525 -47.2812 2.47751
      vertex 1.525 -50 -0.7625
    endloop
  endfacet
  facet normal 2.51373e-15 0.766037 -0.642797
    outer loop
      vertex 1.525 -50 -0.7625
      vertex -1.525 -47.2812 2.47751
      vertex -0.942502 -46.9261 2.90072
    endloop
  endfacet
  facet normal 0 0.766037 -0.642797
    outer loop
      vertex 1.525 -50 -0.7625
      vertex -0.942502 -46.9261 2.90072
      vertex 0.942502 -46.9261 2.90072
    endloop
  endfacet
  facet normal 4.83766e-15 0.766037 -0.642797
    outer loop
      vertex 1.525 -50 -0.7625
      vertex 0.942502 -46.9261 2.90072
      vertex 1.525 -47.2812 2.47751
    endloop
  endfacet
  facet normal -0.587785 2.512e-16 0.809017
    outer loop
      vertex -0.942502 -46.9261 2.90072
      vertex -1.525 -47.2812 2.47751
      vertex -1.525 -50 2.47751
    endloop
  endfacet
  facet normal -0.587785 2.3376e-16 0.809017
    outer loop
      vertex -0.942502 -50 2.90072
      vertex -0.942502 -46.9261 2.90072
      vertex -1.525 -50 2.47751
    endloop
  endfacet
  facet normal -0.580892 -0.152696 0.79953
    outer loop
      vertex -1.525 -50 2.47751
      vertex -1.525 -51.982 2.09898
      vertex -0.7625 -53.5855 2.34673
    endloop
  endfacet
  facet normal -0.580892 -0.152696 0.79953
    outer loop
      vertex -0.942502 -50 2.90072
      vertex -1.525 -50 2.47751
      vertex -0.7625 -53.5855 2.34673
    endloop
  endfacet
  facet normal -0.580893 -0.152697 0.79953
    outer loop
      vertex -1.525 -51.982 2.09898
      vertex -1.525 -53.5855 1.79275
      vertex -0.7625 -53.5855 2.34673
    endloop
  endfacet
  facet normal -0.491809 -0.547638 0.676917
    outer loop
      vertex -1.525 -53.5855 1.79275
      vertex -1.525 -54.198 1.29724
      vertex -0.291249 -55.8014 0.896373
    endloop
  endfacet
  facet normal -0.491809 -0.547638 0.676917
    outer loop
      vertex -0.7625 -53.5855 2.34673
      vertex -1.525 -53.5855 1.79275
      vertex -0.291249 -55.8014 0.896373
    endloop
  endfacet
  facet normal -0.491809 -0.547638 0.676917
    outer loop
      vertex -1.525 -54.198 1.29724
      vertex -1.525 -54.4319 1.10798
      vertex -0.7625 -55.8014 0.553989
    endloop
  endfacet
  facet normal -0.491809 -0.547638 0.676917
    outer loop
      vertex -0.291249 -55.8014 0.896373
      vertex -1.525 -54.198 1.29724
      vertex -0.7625 -55.8014 0.553989
    endloop
  endfacet
  facet normal -0.795764 -0.547638 0.258559
    outer loop
      vertex -1.525 -54.4319 1.10798
      vertex -1.525 -54.8104 0.306238
      vertex -0.7625 -55.8014 0.553989
    endloop
  endfacet
  facet normal -0.795764 -0.547638 0.258559
    outer loop
      vertex -1.525 -54.955 1.22025e-14
      vertex -0.942502 -55.8014 1.23904e-14
      vertex -1.525 -54.8104 0.306238
    endloop
  endfacet
  facet normal -0.795764 -0.547638 0.258559
    outer loop
      vertex -1.525 -54.8104 0.306238
      vertex -0.942502 -55.8014 1.23904e-14
      vertex -0.7625 -55.8014 0.553989
    endloop
  endfacet
  facet normal -0.795764 -0.547638 -0.258559
    outer loop
      vertex -1.525 -54.955 1.22025e-14
      vertex -1.525 -54.5765 -0.80174
      vertex -0.942502 -55.8014 1.23904e-14
    endloop
  endfacet
  facet normal -0.795764 -0.547638 -0.258559
    outer loop
      vertex -1.525 -54.4319 -1.10798
      vertex -0.7625 -55.8014 -0.553989
      vertex -1.525 -54.5765 -0.80174
    endloop
  endfacet
  facet normal -0.795764 -0.547638 -0.258559
    outer loop
      vertex -1.525 -54.5765 -0.80174
      vertex -0.7625 -55.8014 -0.553989
      vertex -0.942502 -55.8014 1.23904e-14
    endloop
  endfacet
  facet normal -0.491809 -0.547638 -0.676917
    outer loop
      vertex -1.525 -53.5855 -1.79275
      vertex -0.7625 -53.5855 -2.34673
      vertex -1.525 -54.4319 -1.10798
    endloop
  endfacet
  facet normal -0.491809 -0.547638 -0.676917
    outer loop
      vertex -1.525 -54.4319 -1.10798
      vertex -0.7625 -53.5855 -2.34673
      vertex -0.7625 -55.8014 -0.553989
    endloop
  endfacet
  facet normal -0.491809 -0.547638 -0.676917
    outer loop
      vertex -0.7625 -55.8014 -0.553989
      vertex -0.7625 -53.5855 -2.34673
      vertex -0.291249 -55.8014 -0.896373
    endloop
  endfacet
  facet normal -0 -0.547638 -0.836716
    outer loop
      vertex -0.7625 -53.5855 -2.34673
      vertex 0.7625 -53.5855 -2.34673
      vertex -0.291249 -55.8014 -0.896373
    endloop
  endfacet
  facet normal -0 -0.547638 -0.836716
    outer loop
      vertex -0.291249 -55.8014 -0.896373
      vertex 0.7625 -53.5855 -2.34673
      vertex 0.291249 -55.8014 -0.896373
    endloop
  endfacet
  facet normal 0.580893 -0.152697 -0.79953
    outer loop
      vertex 1.525 -53.5855 -1.79275
      vertex 0.7625 -53.5855 -2.34673
      vertex 1.525 -51.982 -2.09898
    endloop
  endfacet
  facet normal 0.491809 -0.547638 -0.676917
    outer loop
      vertex 0.291249 -55.8014 -0.896373
      vertex 0.7625 -53.5855 -2.34673
      vertex 1.525 -54.198 -1.29724
    endloop
  endfacet
  facet normal 0.491809 -0.547638 -0.676917
    outer loop
      vertex 1.525 -54.198 -1.29724
      vertex 0.7625 -53.5855 -2.34673
      vertex 1.525 -53.5855 -1.79275
    endloop
  endfacet
  facet normal 0.491809 -0.547638 -0.676917
    outer loop
      vertex 0.291249 -55.8014 -0.896373
      vertex 1.525 -54.198 -1.29724
      vertex 0.7625 -55.8014 -0.553989
    endloop
  endfacet
  facet normal 0.491809 -0.547638 -0.676917
    outer loop
      vertex 0.7625 -55.8014 -0.553989
      vertex 1.525 -54.198 -1.29724
      vertex 1.525 -54.4319 -1.10798
    endloop
  endfacet
  facet normal 0.795764 -0.547638 -0.258559
    outer loop
      vertex 1.525 -54.8104 -0.306238
      vertex 0.7625 -55.8014 -0.553989
      vertex 1.525 -54.4319 -1.10798
    endloop
  endfacet
  facet normal 0.795764 -0.547638 -0.258559
    outer loop
      vertex 0.942502 -55.8014 1.23904e-14
      vertex 0.7625 -55.8014 -0.553989
      vertex 1.525 -54.8104 -0.306238
    endloop
  endfacet
  facet normal 0.795764 -0.547638 -0.258559
    outer loop
      vertex 1.525 -54.955 1.22025e-14
      vertex 0.942502 -55.8014 1.23904e-14
      vertex 1.525 -54.8104 -0.306238
    endloop
  endfacet
  facet normal 0.795764 -0.547638 0.258559
    outer loop
      vertex 1.525 -54.5765 0.80174
      vertex 0.942502 -55.8014 1.23904e-14
      vertex 1.525 -54.955 1.22025e-14
    endloop
  endfacet
  facet normal 0.795764 -0.547638 0.258559
    outer loop
      vertex 1.525 -54.4319 1.10798
      vertex 0.7625 -55.8014 0.553989
      vertex 0.942502 -55.8014 1.23904e-14
    endloop
  endfacet
  facet normal 0.795764 -0.547638 0.258559
    outer loop
      vertex 1.525 -54.5765 0.80174
      vertex 1.525 -54.4319 1.10798
      vertex 0.942502 -55.8014 1.23904e-14
    endloop
  endfacet
  facet normal 0.491809 -0.547638 0.676917
    outer loop
      vertex 0.7625 -53.5855 2.34673
      vertex 0.7625 -55.8014 0.553989
      vertex 1.525 -54.4319 1.10798
    endloop
  endfacet
  facet normal 0.491809 -0.547638 0.676917
    outer loop
      vertex 1.525 -53.5855 1.79275
      vertex 0.7625 -53.5855 2.34673
      vertex 1.525 -54.4319 1.10798
    endloop
  endfacet
  facet normal 0.580893 -0.152696 0.79953
    outer loop
      vertex 0.942502 -50 2.90072
      vertex 0.7625 -53.5855 2.34673
      vertex 1.525 -53.5855 1.79275
    endloop
  endfacet
  facet normal 0.580893 -0.152696 0.79953
    outer loop
      vertex 1.525 -51.982 2.09898
      vertex 0.942502 -50 2.90072
      vertex 1.525 -53.5855 1.79275
    endloop
  endfacet
  facet normal 0.580892 -0.152697 0.79953
    outer loop
      vertex 1.525 -50 2.47751
      vertex 0.942502 -50 2.90072
      vertex 1.525 -51.982 2.09898
    endloop
  endfacet
  facet normal 0.587785 2.31744e-16 0.809017
    outer loop
      vertex 1.525 -47.2812 2.47751
      vertex 0.942502 -46.9261 2.90072
      vertex 0.942502 -50 2.90072
    endloop
  endfacet
  facet normal 0.587785 2.52425e-16 0.809017
    outer loop
      vertex 1.525 -50 2.47751
      vertex 1.525 -47.2812 2.47751
      vertex 0.942502 -50 2.90072
    endloop
  endfacet
  facet normal -0 2.88943e-16 1
    outer loop
      vertex 0.942502 -46.9261 2.90072
      vertex -0.942502 -46.9261 2.90072
      vertex -0.942502 -50 2.90072
    endloop
  endfacet
  facet normal -0 2.88943e-16 1
    outer loop
      vertex 0.942502 -50 2.90072
      vertex 0.942502 -46.9261 2.90072
      vertex -0.942502 -50 2.90072
    endloop
  endfacet
  facet normal 0 -0.152696 0.988273
    outer loop
      vertex 0.942502 -50 2.90072
      vertex -0.942502 -50 2.90072
      vertex -0.7625 -53.5855 2.34673
    endloop
  endfacet
  facet normal 0 -0.152696 0.988273
    outer loop
      vertex 0.7625 -53.5855 2.34673
      vertex 0.942502 -50 2.90072
      vertex -0.7625 -53.5855 2.34673
    endloop
  endfacet
  facet normal 0 -0.547638 0.836716
    outer loop
      vertex 0.7625 -53.5855 2.34673
      vertex -0.7625 -53.5855 2.34673
      vertex -0.291249 -55.8014 0.896373
    endloop
  endfacet
  facet normal 0 -0.547638 0.836716
    outer loop
      vertex 0.291249 -55.8014 0.896373
      vertex 0.7625 -53.5855 2.34673
      vertex -0.291249 -55.8014 0.896373
    endloop
  endfacet
  facet normal 0 -1 0
    outer loop
      vertex -0.7625 -55.8014 0.553989
      vertex -0.942502 -55.8014 1.23904e-14
      vertex -0.7625 -55.8014 -0.553989
    endloop
  endfacet
  facet normal 0 -1 0
    outer loop
      vertex 0.291249 -55.8014 -0.896373
      vertex -0.7625 -55.8014 0.553989
      vertex -0.291249 -55.8014 -0.896373
    endloop
  endfacet
  facet normal 0 -1 0
    outer loop
      vertex -0.291249 -55.8014 -0.896373
      vertex -0.7625 -55.8014 0.553989
      vertex -0.7625 -55.8014 -0.553989
    endloop
  endfacet
  facet normal 0 -1 0
    outer loop
      vertex 0.7625 -55.8014 -0.553989
      vertex -0.7625 -55.8014 0.553989
      vertex 0.291249 -55.8014 -0.896373
    endloop
  endfacet
  facet normal 0 -1 0
    outer loop
      vertex 0.942502 -55.8014 1.23904e-14
      vertex -0.7625 -55.8014 0.553989
      vertex 0.7625 -55.8014 -0.553989
    endloop
  endfacet
  facet normal 0 -1 0
    outer loop
      vertex 0.7625 -55.8014 0.553989
      vertex -0.7625 -55.8014 0.553989
      vertex 0.942502 -55.8014 1.23904e-14
    endloop
  endfacet
  facet normal 0 -1 0
    outer loop
      vertex 0.291249 -55.8014 0.896373
      vertex -0.7625 -55.8014 0.553989
      vertex 0.7625 -55.8014 0.553989
    endloop
  endfacet
  facet normal 0 -1 0
    outer loop
      vertex -0.291249 -55.8014 0.896373
      vertex -0.7625 -55.8014 0.553989
      vertex 0.291249 -55.8014 0.896373
    endloop
  endfacet
  facet normal 0.491809 -0.547638 0.676917
    outer loop
      vertex 0.7625 -53.5855 2.34673
      vertex 0.291249 -55.8014 0.896373
      vertex 0.7625 -55.8014 0.553989
    endloop
  endfacet
endsolid OpenSCAD_Model
